<?xml version="1.0" encoding="UTF-8" standalone="no"?>
<svg
   xmlns:dc="http://purl.org/dc/elements/1.1/"
   xmlns:cc="http://creativecommons.org/ns#"
   xmlns:rdf="http://www.w3.org/1999/02/22-rdf-syntax-ns#"
   xmlns:svg="http://www.w3.org/2000/svg"
   xmlns="http://www.w3.org/2000/svg"
   viewBox="0 0 304 304"
   height="304"
   width="304"
   xml:space="preserve"
   id="svg2"
   version="1.1"><metadata
     id="metadata8"><rdf:RDF><cc:Work
         rdf:about=""><dc:format>image/svg+xml</dc:format><dc:type
           rdf:resource="http://purl.org/dc/dcmitype/StillImage" /></cc:Work></rdf:RDF></metadata><defs
     id="defs6"><clipPath
       id="clipPath18"
       clipPathUnits="userSpaceOnUse"><path
         id="path16"
         d="M 0,228 H 228 V 0 H 0 Z" /></clipPath></defs><g
     transform="matrix(1.3333333,0,0,-1.3333333,0,304)"
     id="g10"><g
       id="g12"><g
         clip-path="url(#clipPath18)"
         id="g14"><g
           transform="translate(88.3535,88.6465)"
           id="g20"><path
             id="path22"
             style="fill:#000000;fill-opacity:1;fill-rule:nonzero;stroke:none"
             d="M 0,0 51.146,51.178 50.438,51.885 -0.707,0.707 Z m 51.291,51.531 c 0,0.277 -0.224,0.501 -0.5,0.501 h -4.497 c -0.276,0 -0.5,-0.224 -0.5,-0.501 0,-0.276 0.224,-0.5 0.5,-0.5 h 3.999 V 47.03 c 0,-0.276 0.223,-0.5 0.498,-0.5 0.276,0 0.5,0.224 0.5,0.5 z" /></g><g
           transform="translate(207.5,103.8721)"
           id="g24"><path
             id="path26"
             style="fill:#000000;fill-opacity:1;fill-rule:nonzero;stroke:none"
             d="M 0,0 C 0.369,3.02 2.756,4.301 5.971,3.9 9.186,3.5 11.249,1.756 10.889,-1.265 10.52,-4.284 8.135,-5.548 4.917,-5.174 1.699,-4.8 -0.36,-3.021 0,0 m -1.26,0.146 c -0.448,-3.853 2.055,-6.254 6.015,-6.714 3.96,-0.46 6.947,1.304 7.394,5.157 0.447,3.844 -2.056,6.246 -6.016,6.706 -3.96,0.46 -6.947,-1.304 -7.393,-5.149" /></g><g
           transform="translate(204.3926,92.0742)"
           id="g28"><path
             id="path30"
             style="fill:#000000;fill-opacity:1;fill-rule:nonzero;stroke:none"
             d="M 0,0 8.258,-2.003 7.444,-5.354 8.634,-5.642 10.571,2.344 9.382,2.633 8.569,-0.717 0.312,1.286 Z" /></g><g
           transform="translate(202.582,85.6328)"
           id="g32"><path
             id="path34"
             style="fill:#000000;fill-opacity:1;fill-rule:nonzero;stroke:none"
             d="m 0,0 4.423,-1.527 -5.981,-2.982 -0.63,-1.82 6.276,3.279 3.106,-5.891 0.576,1.668 -3.007,5.627 4.424,-1.528 0.435,1.259 -9.185,3.183 z" /></g><g
           transform="translate(199.3223,74.7363)"
           id="g36"><path
             id="path38"
             style="fill:#000000;fill-opacity:1;fill-rule:nonzero;stroke:none"
             d="M 0,0 C 0.87,1.878 2.785,2.071 4.826,1.127 6.9,0.166 7.934,-1.414 7.084,-3.251 6.206,-5.146 4.258,-5.325 2.266,-4.402 0.257,-3.473 -0.852,-1.838 0,0 m 8.111,-3.965 c 0.606,1.306 0.516,2.548 -0.1,3.616 L 9.228,-0.912 9.727,0.166 -3.014,6.065 -3.573,4.856 1.4,2.554 C 0.297,2.292 -0.624,1.588 -1.176,0.395 c -1.146,-2.474 0.205,-4.846 2.852,-6.072 2.63,-1.218 5.316,-0.707 6.435,1.712" /></g><g
           transform="translate(199.3232,65.9199)"
           id="g40"><path
             id="path42"
             style="fill:#000000;fill-opacity:1;fill-rule:nonzero;stroke:none"
             d="m 0,0 -0.926,-1.491 c -0.204,-0.329 -0.457,-0.701 -0.73,-0.987 -0.594,-0.617 -1.327,-0.808 -2.252,-0.233 -0.948,0.589 -1.029,1.38 -0.845,2.018 0.112,0.386 0.399,0.864 0.607,1.201 l 0.926,1.491 z m -0.259,-9.511 0.697,1.124 -8.257,5.127 -0.699,-1.124 z M -5.138,1.061 C -5.426,0.594 -5.734,0.064 -5.899,-0.405 -6.348,-1.674 -6.052,-2.99 -4.63,-3.873 c 1.545,-0.959 2.803,-0.502 3.803,0.562 0.289,0.33 0.602,0.802 0.897,1.276 l 0.893,1.437 3.112,-1.932 0.702,1.132 -8.266,5.111 z" /></g><g
           transform="translate(186.7773,56.2578)"
           id="g44"><path
             id="path46"
             style="fill:#000000;fill-opacity:1;fill-rule:nonzero;stroke:none"
             d="m 0,0 6.665,-5.27 -2.139,-2.704 0.96,-0.758 5.098,6.445 -0.961,0.76 L 7.485,-4.231 0.82,1.037 Z" /></g><g
           transform="translate(185.9844,47.7353)"
           id="g48"><path
             id="path50"
             style="fill:#000000;fill-opacity:1;fill-rule:nonzero;stroke:none"
             d="m 0,0 -1.624,-1.685 c -0.275,-0.285 -0.601,-0.595 -0.921,-0.811 -0.711,-0.479 -1.468,-0.512 -2.251,0.245 -0.804,0.774 -0.717,1.565 -0.408,2.144 0.196,0.36 0.578,0.768 0.852,1.052 l 1.624,1.686 z m -5.205,1.693 c -0.388,-0.4 -0.793,-0.847 -1.06,-1.278 -0.697,-1.14 -0.686,-2.489 0.519,-3.651 1.309,-1.261 2.642,-1.097 3.837,-0.248 0.35,0.26 0.752,0.65 1.144,1.057 l 1.581,1.64 2.636,-2.542 0.926,0.958 -7.01,6.734 z" /></g><g
           transform="translate(170.0928,39.9463)"
           id="g52"><path
             id="path54"
             style="fill:#000000;fill-opacity:1;fill-rule:nonzero;stroke:none"
             d="M 0,0 5.172,-6.74 2.438,-8.838 3.183,-9.811 9.702,-4.809 8.957,-3.837 6.223,-5.936 1.05,0.806 Z" /></g><g
           transform="translate(163.7119,34.4619)"
           id="g56"><path
             id="path58"
             style="fill:#000000;fill-opacity:1;fill-rule:nonzero;stroke:none"
             d="M 0,0 C 1.336,0.816 2.3,0.361 2.741,-0.361 3.29,-1.26 2.804,-2.104 2.224,-2.744 1.465,-3.556 0.239,-4.484 -0.771,-5.28 c -0.231,0.376 -0.543,0.924 -0.7,1.386 C -2.021,-2.51 -1.582,-0.966 0,0 m -0.048,-8.434 c 1.095,-0.808 2.557,-0.716 4.07,0.208 1.828,1.116 2.47,2.689 1.949,4.406 L 4.676,-4.168 C 5.036,-5.466 4.522,-6.455 3.386,-7.148 1.812,-8.111 0.748,-7.769 -0.182,-6.281 0.83,-5.452 2.274,-4.327 3.231,-3.374 4.266,-2.288 4.7,-1.031 3.87,0.328 3.063,1.649 1.416,2.204 -0.465,1.055 -1.879,0.192 -2.639,-1.032 -2.642,-2.478 l -0.838,1.375 -1.008,-0.615 3.148,-5.154 c 0.375,-0.614 0.797,-1.2 1.292,-1.562" /></g><g
           transform="translate(153.7148,28.874)"
           id="g60"><path
             id="path62"
             style="fill:#000000;fill-opacity:1;fill-rule:nonzero;stroke:none"
             d="M 0,0 C 1.834,0.858 3.381,0.121 4.3,-1.844 5.215,-3.8 4.784,-5.472 2.975,-6.318 1.173,-7.161 -0.435,-6.442 -1.35,-4.486 -2.246,-2.57 -1.851,-0.865 0,0 M -0.448,1.192 C -3.02,-0.001 -3.83,-2.476 -2.602,-5.101 -1.424,-7.62 0.87,-8.703 3.243,-7.594 c 1.304,0.61 2.236,1.701 2.412,3.065 0.537,-1.447 0.607,-2.786 -0.022,-3.735 -0.807,-1.292 -3.092,-2.44 -4.168,-3.241 l 0.639,-1.023 c 1.432,1.057 3.649,2.094 4.571,3.628 0.484,0.773 0.695,1.766 0.596,2.702 -0.098,1.078 -0.8,3.154 -1.497,4.517 C 4.22,1.428 2.03,2.331 -0.448,1.192" /></g><g
           transform="translate(148.3965,27.5029)"
           id="g64"><path
             id="path66"
             style="fill:#000000;fill-opacity:1;fill-rule:nonzero;stroke:none"
             d="m 0,0 c -1.854,-0.252 -2.124,-1.02 -1.905,-2.638 0.191,-1.426 0.807,-3.984 1.458,-6.444 l -3.851,-1.314 -2.729,7.999 -1.244,-0.426 3.139,-9.198 6.252,2.133 c -0.817,2.983 -1.383,5.196 -1.669,6.952 -0.173,1.064 -0.171,1.673 0.924,1.837 z" /></g><g
           transform="translate(133.3887,13.0957)"
           id="g68"><path
             id="path70"
             style="fill:#000000;fill-opacity:1;fill-rule:nonzero;stroke:none"
             d="M 0,0 3.611,8.473 5.214,1.141 6.472,1.414 4.396,10.91 3.306,10.672 -0.283,2.141 -1.899,9.534 -3.156,9.26 -1.082,-0.236 Z" /></g><g
           transform="translate(117.9414,22.5957)"
           id="g72"><path
             id="path74"
             style="fill:#000000;fill-opacity:1;fill-rule:nonzero;stroke:none"
             d="m 0,0 0.291,-2.892 1.942,0.196 0.851,-8.453 1.315,0.131 -0.844,8.41 5.058,0.508 0.847,-8.409 1.315,0.132 -0.972,9.672 -8.32,-0.837 -0.168,1.674 z" /></g><g
           transform="translate(115.5527,11.1963)"
           id="g76"><path
             id="path78"
             style="fill:#000000;fill-opacity:1;fill-rule:nonzero;stroke:none"
             d="m 0,0 1.404,-0.017 -3.838,9.747 1.652,4.32 -1.322,0.014 -5.383,-13.977 1.35,-0.017 3.044,7.957 z" /></g><g
           transform="translate(54.3867,40.7822)"
           id="g80"><path
             id="path82"
             style="fill:#000000;fill-opacity:1;fill-rule:nonzero;stroke:none"
             d="m 0,0 c 2.354,-1.926 2.16,-4.628 0.102,-7.131 -2.059,-2.502 -4.635,-3.312 -6.995,-1.393 -2.354,1.926 -2.146,4.618 -0.108,7.136 C -4.964,1.132 -2.36,1.92 0,0 m 0.798,0.986 c -3.017,2.44 -6.384,1.61 -8.891,-1.49 -2.507,-3.101 -2.614,-6.568 0.403,-9.007 3.009,-2.433 6.377,-1.603 8.884,1.497 2.507,3.101 2.613,6.568 -0.396,9" /></g><g
           transform="translate(46.2207,49.6025)"
           id="g84"><path
             id="path86"
             style="fill:#000000;fill-opacity:1;fill-rule:nonzero;stroke:none"
             d="m 0,0 -6.094,-5.92 -2.402,2.474 -0.878,-0.854 5.726,-5.893 0.877,0.852 -2.401,2.473 6.094,5.92 z" /></g><g
           transform="translate(41.7114,54.6133)"
           id="g88"><path
             id="path90"
             style="fill:#000000;fill-opacity:1;fill-rule:nonzero;stroke:none"
             d="m 0,0 -3.65,-2.93 0.664,6.65 -1.205,1.502 -0.568,-7.057 -6.641,0.51 1.104,-1.376 6.365,-0.454 -3.65,-2.929 0.834,-1.039 7.586,6.077 z" /></g><g
           transform="translate(34.2026,63.2197)"
           id="g92"><path
             id="path94"
             style="fill:#000000;fill-opacity:1;fill-rule:nonzero;stroke:none"
             d="m 0,0 c 1.124,-1.737 0.266,-3.461 -1.623,-4.683 -1.92,-1.241 -3.808,-1.272 -4.907,0.428 -1.134,1.754 -0.246,3.496 1.598,4.69 C -3.072,1.637 -1.1,1.701 0,0 m -7.683,-4.743 c 0.782,-1.209 1.88,-1.796 3.112,-1.846 L -5.697,-7.316 -5.052,-8.314 6.738,-0.69 6.015,0.429 1.413,-2.549 c 0.366,1.074 0.263,2.23 -0.451,3.332 -1.481,2.29 -4.207,2.413 -6.656,0.83 -2.433,-1.574 -3.435,-4.119 -1.989,-6.356" /></g><g
           transform="translate(26.8462,67.7344)"
           id="g96"><path
             id="path98"
             style="fill:#000000;fill-opacity:1;fill-rule:nonzero;stroke:none"
             d="m 0,0 -0.772,1.575 c -0.171,0.348 -0.353,0.76 -0.451,1.143 -0.207,0.831 0.02,1.553 0.998,2.033 C 0.777,5.242 1.491,4.891 1.934,4.396 2.201,4.097 2.455,3.6 2.629,3.243 L 3.402,1.669 Z M -7.925,5.265 -7.342,4.076 1.384,8.356 0.802,9.545 Z M 3.624,3.792 C 3.382,4.284 3.096,4.825 2.785,5.215 1.948,6.268 0.676,6.717 -0.827,5.979 -2.459,5.179 -2.739,3.868 -2.368,2.457 -2.242,2.038 -2.009,1.521 -1.763,1.02 l 0.745,-1.519 -3.289,-1.613 0.587,-1.197 8.719,4.296 z" /></g><g
           transform="translate(25.3198,83.5146)"
           id="g100"><path
             id="path102"
             style="fill:#000000;fill-opacity:1;fill-rule:nonzero;stroke:none"
             d="m 0,0 -8.009,-2.835 -1.151,3.249 -1.153,-0.407 2.742,-7.746 1.154,0.407 -1.151,3.25 8.009,2.835 z" /></g><g
           transform="translate(18.4995,88.8223)"
           id="g104"><path
             id="path106"
             style="fill:#000000;fill-opacity:1;fill-rule:nonzero;stroke:none"
             d="M 0,0 -0.552,2.273 C -0.646,2.659 -0.734,3.101 -0.745,3.486 -0.767,4.343 -0.389,5 0.669,5.256 1.754,5.519 2.375,5.021 2.698,4.452 2.896,4.093 3.037,3.553 3.13,3.168 L 3.682,0.894 Z M 4.219,3.487 C 4.088,4.029 3.928,4.611 3.707,5.066 3.119,6.267 1.974,6.979 0.347,6.586 -1.42,6.156 -1.996,4.942 -1.919,3.479 -1.887,3.043 -1.773,2.497 -1.639,1.945 l 0.537,-2.213 -3.56,-0.863 0.314,-1.294 9.442,2.309 z" /></g><g
           transform="translate(20.4351,106.2822)"
           id="g108"><path
             id="path110"
             style="fill:#000000;fill-opacity:1;fill-rule:nonzero;stroke:none"
             d="m 0,0 -8.463,-0.752 -0.305,3.433 -1.219,-0.108 0.728,-8.185 1.219,0.109 -0.305,3.433 8.462,0.753 z" /></g><g
           transform="translate(19.2046,114.9971)"
           id="g112"><path
             id="path114"
             style="fill:#000000;fill-opacity:1;fill-rule:nonzero;stroke:none"
             d="M 0,0 C -0.03,-1.566 -0.933,-2.133 -1.778,-2.117 -2.831,-2.097 -3.283,-1.233 -3.51,-0.4 -3.786,0.676 -3.909,2.209 -4.038,3.49 -3.597,3.481 -2.967,3.451 -2.492,3.334 -1.03,3.053 0.036,1.854 0,0 m -7.086,4.575 c -1.27,-0.489 -1.979,-1.772 -2.013,-3.544 -0.042,-2.142 0.94,-3.529 2.668,-4.013 l 0.403,1.28 c -1.289,0.394 -1.847,1.359 -1.821,2.691 0.036,1.844 0.896,2.557 2.651,2.541 0.155,-1.299 0.327,-3.121 0.616,-4.441 0.359,-1.456 1.186,-2.498 2.778,-2.529 1.548,-0.03 2.901,1.06 2.944,3.265 C 1.171,1.481 0.548,2.78 -0.67,3.56 L 0.941,3.528 0.964,4.707 -5.074,4.824 C -5.794,4.838 -6.515,4.798 -7.086,4.575" /></g><g
           transform="translate(19.8276,126.2822)"
           id="g116"><path
             id="path118"
             style="fill:#000000;fill-opacity:1;fill-rule:nonzero;stroke:none"
             d="m 0,0 c -0.257,-2.009 -1.707,-2.921 -3.858,-2.646 -2.143,0.274 -3.325,1.532 -3.072,3.514 0.252,1.973 1.72,2.946 3.862,2.673 C -0.97,3.272 0.259,2.026 0,0 M 1.246,-0.259 C 1.615,2.552 -0.043,4.56 -2.917,4.928 -5.676,5.28 -7.819,3.921 -8.151,1.323 c -0.182,-1.428 0.241,-2.798 1.299,-3.677 -1.51,0.32 -2.678,0.978 -3.144,2.017 -0.66,1.373 -0.407,3.917 -0.508,5.254 l -1.205,0.01 c 0.126,-1.777 -0.185,-4.205 0.618,-5.805 0.394,-0.821 1.12,-1.531 1.965,-1.947 0.962,-0.495 3.092,-1.013 4.616,-1.153 3.458,-0.351 5.393,1.016 5.756,3.719" /></g><g
           transform="translate(21.4946,131.5366)"
           id="g120"><path
             id="path122"
             style="fill:#000000;fill-opacity:1;fill-rule:nonzero;stroke:none"
             d="m 0,0 c 0.783,1.7 0.281,2.34 -1.202,3.024 -1.307,0.604 -3.795,1.458 -6.219,2.231 l 0.959,3.953 8.213,-1.992 0.31,1.277 -9.446,2.292 -1.558,-6.42 c 2.955,-0.911 5.126,-1.623 6.761,-2.326 0.99,-0.425 1.503,-0.753 1.054,-1.765 z" /></g><g
           transform="translate(17.2856,151.751)"
           id="g124"><path
             id="path126"
             style="fill:#000000;fill-opacity:1;fill-rule:nonzero;stroke:none"
             d="m 0,0 5.238,-7.575 -7.056,2.557 -0.439,-1.21 9.138,-3.312 0.381,1.05 -5.301,7.588 7.116,-2.579 0.439,1.21 -9.139,3.312 z" /></g><g
           transform="translate(33.5391,159.7163)"
           id="g128"><path
             id="path130"
             style="fill:#000000;fill-opacity:1;fill-rule:nonzero;stroke:none"
             d="m 0,0 -2.601,1.299 -0.873,-1.747 -7.599,3.798 -0.592,-1.183 7.56,-3.778 -2.273,-4.549 -7.56,3.778 -0.591,-1.183 8.695,-4.346 3.737,7.48 1.506,-0.753 z" /></g><g
           transform="translate(24.9751,167.5283)"
           id="g132"><path
             id="path134"
             style="fill:#000000;fill-opacity:1;fill-rule:nonzero;stroke:none"
             d="M 0,0 -0.762,-1.179 9.53,-3.129 12.303,-6.83 13.021,-5.719 4.066,6.288 3.333,5.154 8.441,-1.665 Z" /></g><g
           transform="translate(82.9009,203.8545)"
           id="g136"><path
             id="path138"
             style="fill:#000000;fill-opacity:1;fill-rule:nonzero;stroke:none"
             d="M 0,0 C -2.888,-0.955 -5.065,0.658 -6.075,3.736 -7.084,6.815 -6.387,9.425 -3.501,10.388 -0.613,11.343 1.547,9.725 2.582,6.654 3.617,3.584 2.886,0.963 0,0 m 0.406,-1.202 c 3.676,1.239 4.78,4.527 3.506,8.305 -1.273,3.778 -4.143,5.727 -7.819,4.487 -3.667,-1.236 -4.772,-4.524 -3.498,-8.302 1.274,-3.778 4.143,-5.726 7.811,-4.49" /></g><g
           transform="translate(94.0996,205.9145)"
           id="g140"><path
             id="path142"
             style="fill:#000000;fill-opacity:1;fill-rule:nonzero;stroke:none"
             d="m 0,0 -1.751,8.313 3.373,0.711 -0.252,1.198 -8.04,-1.694 0.252,-1.197 3.373,0.71 1.751,-8.314 z" /></g><g
           transform="translate(100.8511,207.1128)"
           id="g144"><path
             id="path146"
             style="fill:#000000;fill-opacity:1;fill-rule:nonzero;stroke:none"
             d="M 0,0 -0.522,4.651 4.74,0.532 6.654,0.747 0.996,5.002 4.979,10.34 3.226,10.144 -0.562,5.009 -1.084,9.66 -2.408,9.511 l 1.075,-9.66 z" /></g><g
           transform="translate(112.291,208.9004)"
           id="g148"><path
             id="path150"
             style="fill:#000000;fill-opacity:1;fill-rule:nonzero;stroke:none"
             d="M 0,0 C -2.07,-0.024 -3.07,1.621 -3.096,3.871 -3.122,6.156 -2.142,7.77 -0.117,7.793 1.971,7.817 2.971,6.137 2.997,3.941 3.022,1.727 2.025,0.023 0,0 M 0.085,9.029 C -1.355,9.012 -2.437,8.396 -3.137,7.38 l -0.015,1.341 -1.188,-0.013 0.163,-14.04 1.332,0.016 -0.064,5.481 C -2.197,-0.718 -1.165,-1.247 0.149,-1.231 2.876,-1.2 4.434,1.042 4.401,3.957 4.367,6.855 2.748,9.06 0.085,9.029" /></g><g
           transform="translate(120.7207,212.6948)"
           id="g152"><path
             id="path154"
             style="fill:#000000;fill-opacity:1;fill-rule:nonzero;stroke:none"
             d="M 0,0 1.744,-0.196 C 2.129,-0.239 2.574,-0.307 2.949,-0.431 3.762,-0.703 4.248,-1.283 4.127,-2.365 4.002,-3.474 3.322,-3.887 2.667,-3.995 2.271,-4.059 1.715,-4.005 1.321,-3.961 l -1.744,0.195 z M 8.701,3.851 7.387,3.998 6.303,-5.661 7.616,-5.809 Z M 1.248,-5.094 c 0.546,-0.061 1.156,-0.112 1.651,-0.059 1.338,0.14 2.402,0.972 2.587,2.635 0.203,1.807 -0.751,2.747 -2.14,3.193 -0.422,0.12 -0.984,0.201 -1.537,0.263 l -1.683,0.189 0.409,3.64 -1.324,0.149 -1.065,-9.662 z" /></g><g
           transform="translate(134.7812,205.5347)"
           id="g156"><path
             id="path158"
             style="fill:#000000;fill-opacity:1;fill-rule:nonzero;stroke:none"
             d="M 0,0 1.909,8.279 5.267,7.504 5.543,8.697 -2.464,10.543 -2.739,9.351 0.619,8.576 -1.29,0.297 Z" /></g><g
           transform="translate(142.4395,208.6128)"
           id="g160"><path
             id="path162"
             style="fill:#000000;fill-opacity:1;fill-rule:nonzero;stroke:none"
             d="M 0,0 2.217,-0.748 C 2.592,-0.874 3.013,-1.035 3.345,-1.232 4.08,-1.67 4.435,-2.34 4.087,-3.372 3.729,-4.43 2.978,-4.689 2.323,-4.658 c -0.41,0.024 -0.941,0.194 -1.316,0.32 l -2.219,0.748 z m 0.695,-5.43 c 0.53,-0.178 1.107,-0.354 1.61,-0.409 1.329,-0.144 2.543,0.443 3.078,2.03 0.581,1.723 -0.139,2.858 -1.417,3.574 C 3.579,-0.029 3.057,0.166 2.52,0.347 L 0.361,1.075 1.531,4.546 0.27,4.971 -2.818,-4.245 Z" /></g><g
           transform="translate(156.6406,197.4653)"
           id="g164"><path
             id="path166"
             style="fill:#000000;fill-opacity:1;fill-rule:nonzero;stroke:none"
             d="M 0,0 3.91,7.543 6.972,5.957 7.534,7.043 0.239,10.825 -0.324,9.738 2.736,8.152 -1.174,0.609 Z" /></g><g
           transform="translate(164.0156,194.2446)"
           id="g168"><path
             id="path170"
             style="fill:#000000;fill-opacity:1;fill-rule:nonzero;stroke:none"
             d="m 0,0 c -1.308,0.86 -1.308,1.926 -0.843,2.633 0.578,0.88 1.549,0.802 2.375,0.55 C 2.591,2.843 3.953,2.131 5.105,1.557 4.863,1.188 4.502,0.672 4.149,0.333 3.134,-0.755 1.551,-1.018 0,0 M 7.647,3.559 C 7.911,4.893 7.203,6.176 5.722,7.15 3.932,8.326 2.234,8.235 0.905,7.031 L 1.773,6.008 C 2.793,6.888 3.906,6.846 5.02,6.114 6.562,5.101 6.706,3.994 5.758,2.518 4.575,3.079 2.942,3.904 1.671,4.362 0.248,4.834 -1.073,4.691 -1.948,3.359 -2.799,2.066 -2.598,0.34 -0.755,-0.871 0.629,-1.78 2.061,-1.946 3.369,-1.33 L 2.484,-2.677 3.471,-3.324 6.786,1.723 c 0.396,0.602 0.746,1.233 0.861,1.836" /></g><g
           transform="translate(173.3662,187.6264)"
           id="g172"><path
             id="path174"
             style="fill:#000000;fill-opacity:1;fill-rule:nonzero;stroke:none"
             d="M 0,0 C -1.562,1.291 -1.558,3.004 -0.175,4.675 1.202,6.34 2.896,6.667 4.436,5.394 5.969,4.126 6.008,2.366 4.632,0.701 3.284,-0.929 1.575,-1.302 0,0 M -0.885,-0.915 C 1.294,-2.729 3.878,-2.4 5.724,-0.167 7.496,1.977 7.492,4.514 5.474,6.183 4.364,7.1 2.979,7.474 1.671,7.049 2.749,8.155 3.929,8.792 5.057,8.63 6.568,8.454 8.585,6.88 9.77,6.251 l 0.651,1.015 C 8.852,8.107 6.965,9.667 5.184,9.844 4.278,9.95 3.292,9.715 2.487,9.224 1.556,8.675 -0.02,7.151 -0.953,5.938 -3.098,3.203 -2.976,0.836 -0.885,-0.915" /></g><g
           transform="translate(176.9014,183.4556)"
           id="g176"><path
             id="path178"
             style="fill:#000000;fill-opacity:1;fill-rule:nonzero;stroke:none"
             d="M 0,0 C 1.021,-1.568 1.83,-1.484 3.198,-0.594 4.406,0.19 6.455,1.841 8.4,3.48 L 11.234,0.562 5.173,-5.326 6.089,-6.269 13.061,0.504 8.458,5.243 C 6.111,3.227 4.353,1.77 2.888,0.76 2,0.149 1.448,-0.11 0.833,0.809 Z" /></g><g
           transform="translate(196.7393,175.6548)"
           id="g180"><path
             id="path182"
             style="fill:#000000;fill-opacity:1;fill-rule:nonzero;stroke:none"
             d="m 0,0 -9.203,-0.368 5.938,4.591 -0.786,1.018 -7.691,-5.945 0.682,-0.883 9.248,0.414 -5.988,-4.629 0.786,-1.018 7.691,5.945 z" /></g><g
           transform="translate(194.6953,157.7886)"
           id="g184"><path
             id="path186"
             style="fill:#000000;fill-opacity:1;fill-rule:nonzero;stroke:none"
             d="M 0,0 2.485,1.506 1.475,3.177 8.74,7.579 8.056,8.71 0.828,4.332 -1.808,8.681 5.422,13.059 4.735,14.191 -3.578,9.155 0.754,2.003 -0.686,1.132 Z" /></g><g
           transform="translate(205.8945,160.8008)"
           id="g188"><path
             id="path190"
             style="fill:#000000;fill-opacity:1;fill-rule:nonzero;stroke:none"
             d="m 0,0 -0.59,1.274 -7.142,-7.662 -4.611,-0.37 0.557,-1.2 14.933,1.163 -0.567,1.225 -8.492,-0.68 z" /></g><g
           transform="translate(50.0811,194.4507)"
           id="g192"><path
             id="path194"
             style="fill:#ffd600;fill-opacity:1;fill-rule:nonzero;stroke:none"
             d="M 0,0 C 1.933,0 3.5,-1.567 3.5,-3.5 3.5,-5.433 1.933,-7 0,-7 c -1.933,0 -3.5,1.567 -3.5,3.5 0,1.933 1.567,3.5 3.5,3.5" /></g><g
           transform="translate(80.0811,24.4512)"
           id="g196"><path
             id="path198"
             style="fill:#ffd600;fill-opacity:1;fill-rule:nonzero;stroke:none"
             d="M 0,0 C 1.933,0 3.5,-1.567 3.5,-3.5 3.5,-5.434 1.933,-7 0,-7 c -1.933,0 -3.5,1.566 -3.5,3.5 0,1.933 1.567,3.5 3.5,3.5" /></g><g
           transform="translate(210.0811,134.4507)"
           id="g200"><path
             id="path202"
             style="fill:#ffd600;fill-opacity:1;fill-rule:nonzero;stroke:none"
             d="M 0,0 C 1.933,0 3.5,-1.567 3.5,-3.5 3.5,-5.433 1.933,-7 0,-7 c -1.933,0 -3.5,1.567 -3.5,3.5 0,1.933 1.567,3.5 3.5,3.5" /></g></g></g></g></svg>