<svg id="Слой_1" data-name="Слой 1" xmlns="http://www.w3.org/2000/svg" xmlns:xlink="http://www.w3.org/1999/xlink" viewBox="0 0 150 48"><defs><style>.cls-1{fill:none;}.cls-2{clip-path:url(#clip-path);}.cls-3{fill:#ecebec;}.cls-4{fill:#ffd600;}</style><clipPath id="clip-path"><rect class="cls-1" width="150" height="48"/></clipPath></defs><title>Лого _ белый</title><g class="cls-2"><path class="cls-3" d="M76.36,19.32,62.48,36.16H76.36v4.37H55.09V37.42L69,20.58H55.09V16.2H76.36Z"/><path class="cls-3" d="M100.91,30.56H84.77c.34,3.41,1.71,6.08,7.43,6.08a23.24,23.24,0,0,0,7-.87v4.28a23.31,23.31,0,0,1-7,1c-11,0-12.42-7.83-12.42-12.65,0-7.64,3-12.65,10.57-12.65s10.56,4.52,10.56,12.16ZM84.67,26.18H96c-.1-4.23-1.71-6.08-5.67-6.08C86.58,20.1,84.92,22.24,84.67,26.18Z"/><path class="cls-3" d="M112.64,10.85V16.2h7v4.38h-7v20h-4.89v-20h-3.91V16.21h3.91V6.47h11.84v4.38Z"/><path class="cls-3" d="M129.85,16.21H125V40.54h4.89Z"/><path class="cls-4" d="M129.85,6.47H125v4.87h4.89Z"/><path class="cls-3" d="M150,20.58h-9.39v20h-4.89V16.2H150Z"/><path class="cls-4" d="M21,48A20.85,20.85,0,1,1,41.89,27.15,20.92,20.92,0,0,1,21,48Zm0-36.2A15.36,15.36,0,1,0,36.38,27.15,15.42,15.42,0,0,0,21,11.8Z"/><path class="cls-4" d="M43.41,10.42a5.21,5.21,0,1,0-5.24-5.21A5.22,5.22,0,0,0,43.41,10.42Z"/></g></svg>