<?xml version="1.0" encoding="UTF-8" standalone="no"?>
<svg
   xmlns:dc="http://purl.org/dc/elements/1.1/"
   xmlns:cc="http://creativecommons.org/ns#"
   xmlns:rdf="http://www.w3.org/1999/02/22-rdf-syntax-ns#"
   xmlns:svg="http://www.w3.org/2000/svg"
   xmlns="http://www.w3.org/2000/svg"
   viewBox="0 0 200 64"
   height="64"
   width="200"
   xml:space="preserve"
   id="svg2"
   version="1.1"><metadata
     id="metadata8"><rdf:RDF><cc:Work
         rdf:about=""><dc:format>image/svg+xml</dc:format><dc:type
           rdf:resource="http://purl.org/dc/dcmitype/StillImage" /></cc:Work></rdf:RDF></metadata><defs
     id="defs6"><clipPath
       id="clipPath22"
       clipPathUnits="userSpaceOnUse"><path
         id="path20"
         d="M 0,0 H 150 V 48 H 0 Z" /></clipPath></defs><g
     transform="matrix(1.3333333,0,0,-1.3333333,0,64)"
     id="g10"><g
       transform="translate(76.3613,28.6816)"
       id="g12"><path
         id="path14"
         style="fill:#282828;fill-opacity:1;fill-rule:nonzero;stroke:none"
         d="M 0,0 -13.886,-16.837 H 0 v -4.379 h -21.27 v 3.115 L -7.383,-1.264 H -21.27 V 3.115 H 0 Z" /></g><g
       id="g16"><g
         clip-path="url(#clipPath22)"
         id="g18"><g
           transform="translate(84.6738,21.8203)"
           id="g24"><path
             id="path26"
             style="fill:#282828;fill-opacity:1;fill-rule:nonzero;stroke:none"
             d="M 0,0 H 11.344 C 11.246,4.234 9.632,6.083 5.672,6.083 1.906,6.083 0.244,3.941 0,0 M 16.234,-4.381 H 0.098 c 0.341,-3.405 1.712,-6.082 7.432,-6.082 1.956,0 3.862,0 7.042,0.876 v -4.281 c -3.814,-0.974 -5.184,-0.974 -7.042,-0.974 -11.051,0 -12.42,7.834 -12.42,12.653 0,7.639 3.032,12.653 10.562,12.653 7.53,0 10.562,-4.527 10.562,-12.165 z" /></g><g
           transform="translate(112.6436,37.1484)"
           id="g28"><path
             id="path30"
             style="fill:#282828;fill-opacity:1;fill-rule:nonzero;stroke:none"
             d="M 0,0 V -5.352 H 6.944 V -9.731 H 0 v -19.952 h -4.89 v 19.95 h -3.912 v 4.379 H -4.89 V 4.379 H 6.944 V 0 Z" /></g><path
           id="path32"
           style="fill:#282828;fill-opacity:1;fill-rule:nonzero;stroke:none"
           d="m 129.854,31.794 h -4.89 V 7.463 h 4.89 z" /><path
           id="path34"
           style="fill:#ffd600;fill-opacity:1;fill-rule:nonzero;stroke:none"
           d="m 129.854,41.527 h -4.89 v -4.866 h 4.89 z" /><g
           transform="translate(150,27.4155)"
           id="g36"><path
             id="path38"
             style="fill:#282828;fill-opacity:1;fill-rule:nonzero;stroke:none"
             d="m 0,0 h -9.388 v -19.952 h -4.89 V 4.381 L 0,4.381 Z" /></g><g
           transform="translate(20.9458,36.2051)"
           id="g40"><path
             id="path42"
             style="fill:#ffd600;fill-opacity:1;fill-rule:nonzero;stroke:none"
             d="m 0,0 c -8.51,0 -15.434,-6.891 -15.434,-15.36 0,-8.469 6.924,-15.36 15.434,-15.36 8.51,0 15.434,6.891 15.434,15.36 C 15.434,-6.891 8.51,0 0,0 m 0,-36.205 c -11.55,0 -20.946,9.351 -20.946,20.845 0,11.495 9.396,20.845 20.946,20.845 11.55,0 20.946,-9.35 20.946,-20.845 0,-11.494 -9.396,-20.845 -20.946,-20.845" /></g><g
           transform="translate(43.4077,37.5786)"
           id="g44"><path
             id="path46"
             style="fill:#ffd600;fill-opacity:1;fill-rule:nonzero;stroke:none"
             d="M 0,0 C 2.892,0 5.236,2.333 5.236,5.21 5.236,8.088 2.892,10.421 0,10.421 -2.892,10.421 -5.236,8.088 -5.236,5.21 -5.236,2.333 -2.892,0 0,0" /></g></g></g></g></svg>