<svg width="200" height="200" viewBox="0 0 200 200" fill="none" xmlns="http://www.w3.org/2000/svg">
<path d="M126.071 74.4112C126.071 74.135 125.847 73.9111 125.571 73.9111L121.073 73.9111C120.797 73.9111 120.573 74.135 120.573 74.4112C120.573 74.6875 120.797 74.9114 121.073 74.9114L125.071 74.9114L125.071 78.9127C125.071 79.1889 125.295 79.4128 125.571 79.4128C125.847 79.4128 126.071 79.1889 126.071 78.9127L126.071 74.4112ZM74.7792 125.943L125.925 74.7649L125.218 74.0576L74.0723 125.235L74.7792 125.943Z" fill="#ECEBEC"/>
<path d="M179.869 101.961L191.532 102.773L191.027 110.036L179.364 109.225L179.273 110.544L192.201 111.444L192.89 101.541L179.961 100.641L179.869 101.961Z" fill="#ECEBEC"/>
<path d="M187.861 118.651C188.153 117.241 187.782 116.052 186.939 115.152L188.252 115.423L188.492 114.26L174.743 111.417L174.474 112.722L179.841 113.832C178.827 114.339 178.091 115.234 177.825 116.521C177.273 119.192 179.13 121.193 181.986 121.783C184.824 122.37 187.323 121.26 187.861 118.651ZM179.06 116.638C179.478 114.611 181.298 113.986 183.502 114.441C185.74 114.904 187.107 116.207 186.698 118.19C186.275 120.235 184.42 120.853 182.27 120.408C180.101 119.96 178.65 118.622 179.06 116.638Z" fill="#ECEBEC"/>
<path d="M184.015 131.134L178.606 123.677L185.718 126.076L186.129 124.856L176.919 121.75L176.563 122.807L182.034 130.276L174.862 127.857L174.451 129.076L183.661 132.183L184.015 131.134Z" fill="#ECEBEC"/>
<path d="M171.64 134.636C170.811 136.375 171.036 138.058 172.283 139.46L173.213 138.428C172.366 137.485 172.22 136.369 172.785 135.182C173.683 133.297 175.517 133.005 177.632 133.985C179.668 134.985 180.68 136.565 179.755 138.507C179.209 139.653 178.147 140.313 176.902 140.227L176.718 141.575C178.453 141.805 180.052 140.833 180.896 139.061C182.147 136.437 180.983 134.067 178.236 132.717C175.516 131.459 172.906 131.979 171.64 134.636Z" fill="#ECEBEC"/>
<path d="M167.403 142.287C165.876 144.728 166.721 147.297 169.314 148.921C171.862 150.517 174.552 150.205 176.098 147.733C177.607 145.322 176.791 142.74 174.197 141.116C171.642 139.515 168.94 139.83 167.403 142.287ZM168.479 142.96C169.596 141.175 171.47 141.064 173.453 142.306C175.375 143.51 176.178 145.213 175.023 147.06C173.887 148.876 172.042 148.973 170.059 147.731C168.114 146.513 167.333 144.792 168.479 142.96Z" fill="#ECEBEC"/>
<path d="M162.555 156.733C165.15 158.976 167.823 158.972 169.641 156.738C171.414 154.561 171.003 151.915 168.533 149.902C166.147 147.957 163.444 148.099 161.654 150.298C160.467 151.756 160.219 153.586 161.048 155.261L162.197 154.606C161.636 153.371 161.797 152.132 162.672 151.058C163.893 149.557 165.599 149.472 167.39 150.793L162.555 156.733ZM168.676 155.999C167.534 157.402 166.044 157.522 164.288 156.357L168.231 151.514C169.684 152.965 169.858 154.547 168.676 155.999Z" fill="#ECEBEC"/>
<path d="M156.333 153.598L157.832 155.153L152.689 160.115L151.19 158.56L150.271 159.447L152.556 161.819L153.23 161.169L159.188 167.351L163.812 162.889C161.78 160.586 160.659 159.254 159.817 157.939C158.938 156.599 158.742 155.851 159.532 155.088L157.246 152.716L156.333 153.598ZM157.919 156.644C157.896 157.217 158.191 157.77 158.661 158.517C159.359 159.695 160.942 161.545 162.145 162.923L159.347 165.622L154.176 160.256L157.919 156.644Z" fill="#ECEBEC"/>
<path d="M151.695 173.209L151.428 164L155.952 169.99L156.979 169.214L151.121 161.457L150.231 162.13L150.542 171.384L145.981 165.344L144.954 166.12L150.812 173.877L151.695 173.209Z" fill="#ECEBEC"/>
<path d="M142.09 167.93L144.2 171.596L139.451 174.333L137.341 170.667L136.195 171.328L141.044 179.752L142.19 179.091L140.084 175.433L144.833 172.696L146.939 176.355L148.085 175.694L143.236 167.27L142.09 167.93Z" fill="#ECEBEC"/>
<path d="M132.406 183.589L134.398 174.595L137.32 181.509L138.506 181.007L134.721 172.054L133.694 172.489L131.734 181.537L128.787 174.566L127.602 175.067L131.386 184.02L132.406 183.589Z" fill="#ECEBEC"/>
<path d="M121.834 176.854L124.209 185.011L120.9 185.976L121.242 187.151L129.131 184.851L128.789 183.676L125.479 184.641L123.104 176.484L121.834 176.854Z" fill="#ECEBEC"/>
<path d="M113.415 178.756C112.866 178.852 112.275 178.974 111.806 179.166C110.57 179.674 109.784 180.771 110.072 182.42C110.385 184.211 111.559 184.864 113.024 184.882C113.462 184.879 114.015 184.8 114.573 184.702L116.816 184.31L117.447 187.918L118.759 187.688L117.068 178.117L113.415 178.756ZM116.621 183.193L114.316 183.596C113.926 183.664 113.48 183.724 113.093 183.71C112.238 183.677 111.607 183.257 111.42 182.184C111.228 181.085 111.764 180.498 112.354 180.212C112.726 180.037 113.274 179.932 113.664 179.864L115.969 179.46L116.621 183.193Z" fill="#ECEBEC"/>
<path d="M104.273 179.5C102.351 179.618 100.989 180.631 100.368 182.401L101.721 182.714C102.134 181.516 103.04 180.847 104.351 180.766C106.435 180.637 107.581 182.099 107.751 184.424C107.864 186.69 106.974 188.341 104.827 188.473C103.561 188.552 102.468 187.943 101.938 186.813L100.67 187.306C101.312 188.934 102.938 189.862 104.897 189.741C107.798 189.561 109.305 187.394 109.153 184.338C108.932 181.348 107.21 179.318 104.273 179.5Z" fill="#ECEBEC"/>
<path d="M91.2117 189.259L94.9233 189.46C95.3546 189.483 95.9927 189.518 96.5751 189.414C97.8498 189.177 98.9192 188.234 99.0071 186.607C99.0926 185.026 98.1711 184.066 96.9304 183.674L99.6806 179.983L98.2337 179.905L95.5821 183.439C95.4298 183.422 95.2771 183.413 95.1243 183.405L92.8596 183.282L93.0573 179.625L91.7272 179.553L91.2117 189.259ZM95.135 184.541C95.4495 184.558 95.9079 184.583 96.3334 184.714C97.1311 184.965 97.6926 185.581 97.6402 186.552C97.5843 187.585 96.8707 188.114 96.2679 188.262C95.8117 188.363 95.2271 188.341 94.9305 188.325L92.594 188.198L92.7984 184.415L95.135 184.541Z" fill="#ECEBEC"/>
<path d="M84.5603 178.407L83.5615 182.979L79.9004 177.388L78.0189 176.976L82.0109 182.824L76.5248 186.599L78.2481 186.976L83.4847 183.331L82.4859 187.903L83.7872 188.188L85.8703 178.694L84.5603 178.407Z" fill="#ECEBEC"/>
<path d="M72.6931 175.132L69.5488 182.976L64.8297 181.082L67.974 173.238L66.7462 172.745L63.1298 181.767L70.3045 184.647L73.9209 175.625L72.6931 175.132Z" fill="#ECEBEC"/>
<path d="M56.2201 178.493C57.4808 179.188 58.7253 179.187 59.8345 178.648L59.1871 179.822L60.2271 180.396L67.0054 168.101L65.8392 167.457L63.1931 172.257C63.0087 171.137 62.3711 170.169 61.2207 169.534C58.8333 168.216 56.3733 169.397 54.9655 171.951C53.5664 174.489 53.8879 177.205 56.2201 178.493ZM60.7437 170.679C62.5559 171.679 62.6153 173.603 61.529 175.574C60.4254 177.576 58.7774 178.496 57.0045 177.517C55.1765 176.508 55.1345 174.552 56.1947 172.629C57.2636 170.69 58.9708 169.7 60.7437 170.679Z" fill="#ECEBEC"/>
<path d="M53.3088 164.467C50.9741 162.781 48.357 163.455 46.5668 165.937C44.8081 168.375 44.9424 171.081 47.3062 172.788C49.6117 174.453 52.2402 173.81 54.0304 171.328C55.7943 168.883 55.658 166.164 53.3088 164.467ZM52.5664 165.496C54.2736 166.73 54.2613 168.608 52.8923 170.506C51.5654 172.345 49.8142 173.034 48.0486 171.759C46.3122 170.505 46.3359 168.657 47.7049 166.759C49.0476 164.898 50.8154 164.232 52.5664 165.496Z" fill="#ECEBEC"/>
<path d="M39.2791 158.714C36.8724 161.159 36.7021 163.828 38.8105 165.79C40.8663 167.702 43.5315 167.465 45.7002 165.131C47.7955 162.877 47.8307 160.168 45.7552 158.237C44.3781 156.956 42.5695 156.588 40.8449 157.307L41.4229 158.496C42.6914 158.017 43.9162 158.259 44.9309 159.203C46.3475 160.521 46.3205 162.23 44.8863 163.932L39.2791 158.714ZM39.6113 164.875C38.2869 163.643 38.2643 162.147 39.5402 160.469L44.113 164.724C42.5707 166.08 40.9818 166.15 39.6113 164.875Z" fill="#ECEBEC"/>
<path d="M40.6367 153.434L37.0968 156.496L37.5188 149.825L36.2599 148.367L35.9488 155.442L29.296 155.175L30.449 156.51L36.8245 156.731L33.2846 159.793L34.1552 160.801L41.5132 154.449L40.6367 153.434Z" fill="#ECEBEC"/>
<path d="M34.1123 145.114L27.1352 149.962L25.17 147.13L24.1648 147.829L28.8496 154.58L29.8548 153.881L27.8895 151.049L34.8666 146.201L34.1123 145.114Z" fill="#ECEBEC"/>
<path d="M22.6637 145.3L23.3325 146.534L29.9789 138.435L34.5552 137.775L33.925 136.612L19.0972 138.716L19.7402 139.903L28.1714 138.688L22.6637 145.3Z" fill="#ECEBEC"/>
<path d="M20.1432 97.1221L8.49058 96.1756L9.07931 88.9184L20.7319 89.8649L20.8389 88.5462L7.92145 87.497L7.11877 97.3915L20.0362 98.4407L20.1432 97.1221Z" fill="#ECEBEC"/>
<path d="M12.2512 80.758C11.9492 82.166 12.3104 83.3573 13.1469 84.2642L11.8358 83.9826L11.5867 85.1442L25.3138 88.0918L25.5931 86.7894L20.2342 85.6387C21.2526 85.1394 21.9957 84.2495 22.2712 82.9648C22.843 80.2984 21.0017 78.2829 18.1507 77.6707C15.3172 77.0623 12.8098 78.1532 12.2512 80.758ZM21.0374 82.8379C20.6033 84.8619 18.7785 85.4734 16.5787 85.001C14.3436 84.5211 12.9868 83.208 13.4114 81.228C13.8492 79.1864 15.7092 78.5825 17.8563 79.0435C20.0209 79.5083 21.462 80.8579 21.0374 82.8379Z" fill="#ECEBEC"/>
<path d="M16.2856 68.0327L21.6095 75.5501L14.5248 73.0709L14.1002 74.2858L23.2746 77.4963L23.6428 76.4428L18.2565 68.9131L25.4007 71.4131L25.8253 70.1982L16.6508 66.9877L16.2856 68.0327Z" fill="#ECEBEC"/>
<path d="M28.5491 64.9474C29.3903 63.2149 29.1777 61.5304 27.9421 60.1191L27.0041 61.1441C27.8441 62.0929 27.9817 63.2106 27.4078 64.3926C26.4958 66.2709 24.6598 66.5492 22.5517 65.5543C20.5237 64.5383 19.5235 62.9512 20.463 61.0163C21.0173 59.8747 22.0843 59.2226 23.3289 59.3173L23.5227 57.9705C21.7894 57.7283 20.1826 58.6884 19.3257 60.4533C18.0559 63.0684 19.2021 65.4469 21.9384 66.8172C24.6495 68.0953 27.2636 67.5949 28.5491 64.9474Z" fill="#ECEBEC"/>
<path d="M32.9369 57.1536C34.4911 54.729 33.674 52.1512 31.0988 50.4983C28.5691 48.8746 25.8761 49.1567 24.3024 51.6116C22.7676 54.0059 23.5549 56.5967 26.1301 58.2495C28.6674 59.8781 31.3729 59.5933 32.9369 57.1536ZM31.8689 56.4681C30.7324 58.2411 28.8571 58.3315 26.8878 57.0675C24.9791 55.8425 24.1949 54.1307 25.3703 52.2971C26.5263 50.4937 28.3719 50.4164 30.3411 51.6803C32.2725 52.92 33.0346 54.6497 31.8689 56.4681Z" fill="#ECEBEC"/>
<path d="M37.7258 42.9554C35.1469 40.6932 32.4742 40.678 30.6397 42.8982C28.8511 45.0629 29.2428 47.7114 31.6976 49.7423C34.0692 51.7044 36.7735 51.5823 38.5794 49.3968C39.7775 47.9468 40.0387 46.1188 39.2211 44.4378L38.0682 45.0842C38.6203 46.3236 38.45 47.5611 37.5672 48.6295C36.3347 50.1212 34.6289 50.1934 32.8473 48.8596L37.7258 42.9554ZM31.5988 43.6449C32.7511 42.2504 34.2425 42.141 35.99 43.3181L32.0115 48.1331C30.5693 46.6712 30.4064 45.0881 31.5988 43.6449Z" fill="#ECEBEC"/>
<path d="M44.1115 45.9125L42.6297 44.3409L47.8258 39.4353L49.3076 41.0069L50.2369 40.1295L47.9772 37.7329L47.2966 38.3754L41.4063 32.1285L36.7337 36.5398C38.741 38.8654 39.8475 40.2096 40.6746 41.5328C41.5392 42.8826 41.7274 43.6332 40.929 44.387L43.1887 46.7836L44.1115 45.9125ZM42.5585 42.8486C42.5879 42.2763 42.2985 41.7201 41.8367 40.968C41.152 39.7826 39.5896 37.9157 38.4017 36.5246L41.2288 33.8556L46.3411 39.2775L42.5585 42.8486Z" fill="#ECEBEC"/>
<path d="M48.7663 26.4639L48.9322 35.6751L44.4744 29.6362L43.4394 30.4011L49.2121 38.2213L50.1095 37.558L49.899 28.3015L54.3942 34.3911L55.4292 33.6261L49.6565 25.806L48.7663 26.4639Z" fill="#ECEBEC"/>
<path d="M58.1118 31.9177L56.0288 28.2361L60.7977 25.5345L62.8807 29.216L64.0318 28.5639L59.2453 20.1041L58.0942 20.7563L60.1728 24.43L55.4039 27.1317L53.3253 23.4579L52.1742 24.1101L56.9607 32.5698L58.1118 31.9177Z" fill="#ECEBEC"/>
<path d="M68.4284 16.0875L66.3352 25.0584L63.4904 18.1124L62.2996 18.6007L65.9835 27.5956L67.016 27.1722L69.077 18.1463L71.9457 25.1507L73.1364 24.6624L69.4526 15.6675L68.4284 16.0875Z" fill="#ECEBEC"/>
<path d="M78.7846 22.9668L76.5016 14.7832L79.8216 13.8559L79.4926 12.6769L71.5786 14.8875L71.9075 16.0665L75.2274 15.1392L77.5104 23.3227L78.7846 22.9668Z" fill="#ECEBEC"/>
<path d="M87.0046 21.1751C87.5554 21.0852 88.1476 20.9703 88.6187 20.784C89.8604 20.2895 90.6588 19.2017 90.3894 17.5495C90.097 15.7552 88.9305 15.0884 87.4659 15.0538C87.0279 15.0524 86.4743 15.1245 85.9147 15.2158L83.6674 15.5826L83.0781 11.9673L81.7635 12.1819L83.3451 21.7724L87.0046 21.1751ZM83.8499 16.7018L86.1593 16.3249C86.5502 16.2611 86.9972 16.2064 87.3833 16.2255C88.2383 16.2683 88.8641 16.695 89.0393 17.7699C89.2189 18.8713 88.6753 19.4525 88.0825 19.7316C87.709 19.902 87.1597 20.0008 86.7689 20.0645L84.4595 20.4415L83.8499 16.7018Z" fill="#ECEBEC"/>
<path d="M96.2812 20.474C98.2048 20.3774 99.5786 19.3803 100.22 17.6179L98.8698 17.2892C98.4431 18.4821 97.53 19.1407 96.2176 19.2066C94.1322 19.3113 93.0038 17.836 92.86 15.5093C92.7732 13.2428 93.6821 11.6022 95.8304 11.4943C97.0978 11.4307 98.1833 12.052 98.7 13.1886L99.9736 12.7101C99.3508 11.0743 97.7353 10.1281 95.7758 10.2265C92.8724 10.3722 91.3403 12.5218 91.4578 15.5797C91.644 18.5711 93.3419 20.6216 96.2812 20.474Z" fill="#ECEBEC"/>
<path d="M109.209 10.7957L105.499 10.5664C105.068 10.5397 104.43 10.5003 103.847 10.5995C102.57 10.8272 101.494 11.7615 101.393 13.3874C101.295 14.9684 102.209 15.9356 103.447 16.3368L100.668 20.0063L102.115 20.0957L104.793 16.5823C104.946 16.6007 105.098 16.6101 105.251 16.6196L107.515 16.7595L107.289 20.4155L108.618 20.4977L109.209 10.7957ZM105.249 15.4833C104.935 15.4639 104.477 15.4356 104.052 15.3011C103.256 15.0445 102.7 14.424 102.76 13.4539C102.823 12.4208 103.541 11.8971 104.145 11.7541C104.602 11.6561 105.186 11.6832 105.483 11.7015L107.818 11.8459L107.585 15.6277L105.249 15.4833Z" fill="#ECEBEC"/>
<path d="M115.779 21.655L116.812 17.0905L120.431 22.7097L122.309 23.1356L118.362 17.2573L123.876 13.5242L122.156 13.1342L116.892 16.7394L117.926 12.175L116.626 11.8805L114.471 21.3585L115.779 21.655Z" fill="#ECEBEC"/>
<path d="M127.932 25.0968L131.164 17.2883L135.862 19.2352L132.63 27.0437L133.852 27.5503L137.569 18.5692L130.427 15.6093L126.71 24.5903L127.932 25.0968Z" fill="#ECEBEC"/>
<path d="M144.434 21.8855C143.181 21.1757 141.936 21.1637 140.821 21.6905L141.482 20.5234L140.448 19.9378L133.534 32.1575L134.693 32.814L137.392 28.0437C137.564 29.1652 138.191 30.1409 139.334 30.7886C141.707 32.1328 144.18 30.9788 145.616 28.4408C147.043 25.9186 146.752 23.1986 144.434 21.8855ZM139.824 29.6489C138.023 28.6286 137.985 26.7037 139.093 24.7455C140.219 22.7558 141.877 21.854 143.639 22.8521C145.455 23.8813 145.476 25.8375 144.394 27.7488C143.304 29.6757 141.586 30.6471 139.824 29.6489Z" fill="#ECEBEC"/>
<path d="M147.099 35.8409C149.415 37.5528 152.039 36.9072 153.856 34.4453C155.642 32.0269 155.537 29.3196 153.192 27.5863C150.905 25.8959 148.269 26.5109 146.452 28.9728C144.662 31.3985 144.768 34.1184 147.099 35.8409ZM147.852 34.82C146.159 33.5682 146.192 31.69 147.581 29.8073C148.928 27.9826 150.687 27.3127 152.438 28.6073C154.161 29.8805 154.117 31.7282 152.727 33.6108C151.364 35.4572 149.589 36.1038 147.852 34.82Z" fill="#ECEBEC"/>
<path d="M160.938 41.5473C163.362 39.1204 163.552 36.4528 161.458 34.4757C159.416 32.5481 156.749 32.7657 154.563 35.0838C152.452 37.3233 152.397 40.0315 154.458 41.9777C155.826 43.269 157.632 43.6496 159.362 42.9433L158.792 41.7498C157.52 42.2199 156.297 41.9688 155.29 41.0174C153.882 39.689 153.922 37.9811 155.368 36.2895L160.938 41.5473ZM160.65 35.3845C161.966 36.6263 161.977 38.1226 160.689 39.7904L156.148 35.5026C157.7 34.1583 159.289 34.0993 160.65 35.3845Z" fill="#ECEBEC"/>
<path d="M159.801 47.0704L163.375 44.0479L162.88 50.7141L164.123 52.1854L164.511 45.1141L171.16 45.4542L170.022 44.1067L163.649 43.8154L167.223 40.7929L166.363 39.7754L158.936 46.046L159.801 47.0704Z" fill="#ECEBEC"/>
<path d="M166.306 55.5249L173.336 50.7538L175.27 53.6071L176.283 52.9198L171.672 46.1181L170.659 46.8054L172.594 49.6587L165.564 54.4298L166.306 55.5249Z" fill="#ECEBEC"/>
<path d="M177.742 55.4234L177.087 54.1815L170.352 62.2069L165.768 62.8157L166.385 63.9859L181.236 62.0466L180.606 60.8525L172.162 61.9736L177.742 55.4234Z" fill="#ECEBEC"/>
<ellipse cx="18.1567" cy="117.777" rx="3.37542" ry="3.37757" fill="#FFD600"/>
<ellipse cx="183.204" cy="80.6732" rx="3.37542" ry="3.37757" fill="#FFD600"/>
</svg>
