<svg width="25" height="15" viewBox="0 0 25 15" fill="none" xmlns="http://www.w3.org/2000/svg">
<path d="M24.9074 7.0214C24.7106 6.73388 19.9792 0 12.5 0C6.08212 0 0.363275 6.69521 0.122646 6.98063C-0.040882 7.17508 -0.040882 7.4605 0.122646 7.65598C0.363275 7.9414 6.08212 14.6366 12.5 14.6366C18.9178 14.6366 24.6366 7.9414 24.8772 7.65598C25.0283 7.47618 25.0418 7.21586 24.9074 7.0214ZM12.5 13.5912C7.35509 13.5912 2.46331 8.66699 1.22061 7.31833C2.46126 5.96864 7.34782 1.0455 12.5 1.0455C18.5198 1.0455 22.7689 5.96237 23.8064 7.2901C22.6084 8.59588 17.6886 13.5912 12.5 13.5912Z" fill="#ECEBEC"/>
<path d="M12.5036 3.3457C10.2057 3.3457 8.33691 5.22128 8.33691 7.52758C8.33691 9.83388 10.2057 11.7095 12.5036 11.7095C14.8016 11.7095 16.6704 9.83388 16.6704 7.52758C16.6704 5.22128 14.8016 3.3457 12.5036 3.3457ZM12.5036 10.664C10.7807 10.664 9.37858 9.25682 9.37858 7.52763C9.37858 5.79843 10.7807 4.39121 12.5036 4.39121C14.2266 4.39121 15.6287 5.79843 15.6287 7.52763C15.6287 9.25682 14.2266 10.664 12.5036 10.664Z" fill="#ECEBEC"/>
</svg>
