<svg width="45" height="45" viewBox="0 0 45 45" fill="none" xmlns="http://www.w3.org/2000/svg">
<path d="M23.5286 22.4954L44.7855 1.23855C45.0688 0.955178 45.0688 0.495832 44.7855 0.212461C44.5021 -0.0708203 44.0428 -0.0708203 43.7594 0.212461L22.5025 21.4693L1.24566 0.212461C0.957393 -0.065922 0.498048 -0.0579397 0.219575 0.23033C-0.0520049 0.511525 -0.0520049 0.957355 0.219575 1.23855L21.4764 22.4954L0.219575 43.7523C-0.0686951 44.0308 -0.0766774 44.4901 0.201796 44.7784C0.48027 45.0666 0.939615 45.0746 1.22788 44.7962C1.23396 44.7903 1.23986 44.7844 1.24566 44.7784L22.5025 23.5215L43.7594 44.7784C44.0477 45.0568 44.507 45.0489 44.7855 44.7606C45.0572 44.4794 45.0572 44.0335 44.7855 43.7523L23.5286 22.4954Z" fill="currentColor"/>
</svg>
