<svg width="20" height="20" viewBox="0 0 20 20" fill="none" xmlns="http://www.w3.org/2000/svg">
<path d="M10 11.2653C3.55144 11.2653 0 14.108 0 19.2701C0 19.6732 0.350646 20 0.783285 20H19.2167C19.6494 20 20 19.6732 20 19.2701C20 14.1083 16.4486 11.2653 10 11.2653ZM1.59507 18.5402C1.90317 14.6806 4.72691 12.7251 10 12.7251C15.2731 12.7251 18.0969 14.6806 18.4053 18.5402H1.59507Z" fill="#ECEBEC"/>
<path d="M10 0C7.03786 0 4.8042 2.12334 4.8042 4.9389C4.8042 7.83692 7.13503 10.1943 10 10.1943C12.865 10.1943 15.1958 7.83692 15.1958 4.93913C15.1958 2.12334 12.9622 0 10 0ZM10 8.73472C7.99871 8.73472 6.37077 7.03204 6.37077 4.93913C6.37077 2.9231 7.89714 1.45983 10 1.45983C12.0692 1.45983 13.6293 2.95544 13.6293 4.93913C13.6293 7.03204 12.0013 8.73472 10 8.73472Z" fill="#ECEBEC"/>
</svg>
