<svg xmlns="http://www.w3.org/2000/svg" height="64" width="200"><defs><clipPath id="a" clipPathUnits="userSpaceOnUse"><path d="M0 0h150v48H0z"/></clipPath></defs><path d="M101.815 25.758L83.3 48.208h18.515v5.838h-28.36v-4.153l18.516-22.45H73.455v-5.838h28.36z" fill="#282828"/><g clip-path="url(#a)" transform="matrix(1.33333 0 0 -1.33333 0 64)"><path d="M84.674 21.82h11.344c-.098 4.234-1.712 6.083-5.672 6.083-3.766 0-5.428-2.142-5.672-6.083m16.234-4.38H84.772c.34-3.406 1.712-6.083 7.432-6.083 1.956 0 3.862 0 7.042.876v-4.28c-3.814-.975-5.184-.975-7.042-.975-11.051 0-12.42 7.834-12.42 12.653 0 7.64 3.032 12.653 10.562 12.653 7.53 0 10.562-4.527 10.562-12.165zm11.736 19.708v-5.352h6.944v-4.379h-6.944V7.465h-4.89v19.95h-3.912v4.38h3.912v9.732h11.834v-4.379zm17.21-5.354h-4.89V7.463h4.89z" fill="#282828"/><path d="M129.854 41.527h-4.89v-4.866h4.89z" fill="#ffd600"/><path d="M150 27.416h-9.388V7.463h-4.89v24.334H150z" fill="#282828"/><path d="M20.946 36.205c-8.51 0-15.434-6.89-15.434-15.36 0-8.469 6.924-15.36 15.434-15.36 8.51 0 15.434 6.891 15.434 15.36 0 8.47-6.924 15.36-15.434 15.36m0-36.205C9.396 0 0 9.351 0 20.845 0 32.34 9.396 41.69 20.946 41.69s20.946-9.35 20.946-20.845C41.892 9.351 32.496 0 20.946 0m22.462 37.579c2.892 0 5.236 2.333 5.236 5.21 0 2.878-2.344 5.21-5.236 5.21s-5.236-2.332-5.236-5.21c0-2.877 2.344-5.21 5.236-5.21" fill="#ffd600"/></g></svg>