<svg width="200" height="200" fill="none" xmlns="http://www.w3.org/2000/svg"><path d="M126.071 74.411a.5.5 0 00-.5-.5h-4.498a.5.5 0 000 1h3.998v4.002a.5.5 0 001 0V74.41zm-51.292 51.532l51.146-51.178-.707-.707-51.146 51.177.707.708zm105.09-23.982l11.663.812-.505 7.263-11.663-.811-.091 1.319 12.928.9.689-9.903-12.929-.9-.092 1.32zm7.992 16.69c.292-1.41-.079-2.599-.922-3.499l1.313.271.24-1.163-13.749-2.843-.269 1.305 5.367 1.11c-1.014.507-1.75 1.402-2.016 2.689-.552 2.671 1.305 4.672 4.161 5.262 2.838.587 5.337-.523 5.875-3.132zm-8.801-2.013c.418-2.027 2.238-2.652 4.442-2.197 2.238.463 3.605 1.766 3.196 3.749-.423 2.045-2.278 2.663-4.428 2.218-2.169-.448-3.62-1.786-3.21-3.77zm4.955 14.496l-5.409-7.457 7.112 2.399.411-1.22-9.21-3.106-.356 1.057 5.471 7.469-7.172-2.419-.411 1.219 9.21 3.107.354-1.049zm-12.375 3.502c-.829 1.739-.604 3.422.643 4.824l.93-1.032c-.847-.943-.993-2.059-.428-3.246.898-1.885 2.732-2.177 4.847-1.197 2.036 1 3.048 2.58 2.123 4.522-.546 1.146-1.608 1.806-2.853 1.72l-.184 1.348c1.735.23 3.334-.742 4.178-2.514 1.251-2.624.087-4.994-2.66-6.344-2.72-1.258-5.33-.738-6.596 1.919zm-4.237 7.651c-1.527 2.441-.682 5.01 1.911 6.634 2.548 1.596 5.238 1.284 6.784-1.188 1.509-2.411.693-4.993-1.901-6.617-2.555-1.601-5.257-1.286-6.794 1.171zm1.076.673c1.117-1.785 2.991-1.896 4.974-.654 1.922 1.204 2.725 2.907 1.57 4.754-1.136 1.816-2.981 1.913-4.964.671-1.945-1.218-2.726-2.939-1.58-4.771zm-5.924 13.773c2.595 2.243 5.268 2.239 7.086.005 1.773-2.177 1.362-4.823-1.108-6.836-2.386-1.945-5.089-1.803-6.879.396-1.187 1.458-1.435 3.288-.606 4.963l1.149-.655c-.561-1.235-.4-2.474.475-3.548 1.221-1.501 2.927-1.586 4.718-.265l-4.835 5.94zm6.121-.734c-1.142 1.403-2.632 1.523-4.388.358l3.943-4.843c1.453 1.451 1.627 3.033.445 4.485zm-12.343-2.401l1.499 1.555-5.143 4.962-1.499-1.555-.919.887 2.285 2.372.674-.65 5.958 6.182 4.624-4.462c-2.032-2.303-3.153-3.635-3.995-4.95-.879-1.34-1.075-2.088-.285-2.851l-2.286-2.372-.913.882zm1.586 3.046c-.023.573.272 1.126.742 1.873.698 1.178 2.281 3.028 3.484 4.406l-2.798 2.699-5.171-5.366 3.743-3.612zm-6.224 16.565l-.267-9.209 4.524 5.99 1.027-.776-5.858-7.757-.89.673.311 9.254-4.561-6.04-1.027.776 5.858 7.757.883-.668zm-9.605-5.279l2.11 3.666-4.749 2.737-2.11-3.666-1.146.661 4.849 8.424 1.146-.661-2.106-3.658 4.749-2.737 2.106 3.659 1.146-.661-4.849-8.424-1.146.66zm-9.684 15.659l1.992-8.994 2.922 6.914 1.186-.502-3.785-8.953-1.027.435-1.96 9.048-2.947-6.971-1.185.501 3.784 8.953 1.02-.431zm-10.572-6.735l2.375 8.157-3.309.965.342 1.175 7.889-2.3-.342-1.175-3.31.965-2.375-8.157-1.27.37zm-8.419 1.902c-.549.096-1.14.218-1.609.41-1.236.508-2.022 1.605-1.734 3.254.313 1.791 1.487 2.444 2.952 2.462.438-.003.991-.082 1.549-.18l2.243-.392.631 3.608 1.312-.23-1.691-9.571-3.653.639zm3.206 4.437l-2.305.403c-.39.068-.836.128-1.223.114-.855-.033-1.486-.453-1.673-1.526-.192-1.099.344-1.686.934-1.972.372-.175.92-.28 1.31-.348l2.305-.404.652 3.733zm-12.348-3.693c-1.922.118-3.284 1.131-3.905 2.901l1.353.313c.413-1.198 1.319-1.867 2.63-1.948 2.084-.129 3.23 1.333 3.4 3.658.113 2.266-.777 3.917-2.924 4.049-1.266.079-2.359-.53-2.889-1.66l-1.268.493c.642 1.628 2.268 2.556 4.227 2.435 2.901-.18 4.408-2.347 4.256-5.403-.221-2.99-1.943-5.02-4.88-4.838zm-13.061 9.759l3.711.201c.432.023 1.07.058 1.652-.046 1.275-.237 2.344-1.18 2.432-2.807.086-1.581-.836-2.541-2.077-2.933l2.75-3.691-1.446-.078-2.652 3.534a7.796 7.796 0 00-.458-.034l-2.264-.123.197-3.657-1.33-.072-.515 9.706zm3.923-4.718c.314.017.773.042 1.198.173.798.251 1.36.867 1.307 1.838-.056 1.033-.77 1.562-1.372 1.71-.456.101-1.04.079-1.338.063l-2.336-.127.204-3.783 2.337.126zm-10.575-6.134l-.999 4.572-3.66-5.591-1.882-.412 3.992 5.848-5.486 3.775 1.723.377 5.237-3.645-1 4.572 1.302.285 2.083-9.494-1.31-.287zm-11.867-3.275l-3.144 7.844-4.72-1.894 3.145-7.844-1.228-.493-3.616 9.022 7.175 2.88 3.616-9.022-1.228-.493zm-16.473 3.361c1.26.695 2.505.694 3.614.155l-.647 1.174 1.04.574 6.778-12.295-1.166-.644-2.646 4.8c-.184-1.12-.822-2.088-1.972-2.723-2.388-1.318-4.848-.137-6.255 2.417-1.4 2.538-1.078 5.254 1.254 6.542zm4.524-7.814c1.812 1 1.871 2.924.785 4.895-1.104 2.002-2.752 2.922-4.525 1.943-1.828-1.009-1.87-2.965-.81-4.888 1.07-1.939 2.777-2.929 4.55-1.95zm-7.435-6.212c-2.335-1.686-4.952-1.012-6.742 1.47-1.759 2.438-1.625 5.144.74 6.851 2.305 1.665 4.933 1.022 6.723-1.46 1.764-2.445 1.628-5.164-.721-6.861zm-.743 1.029c1.708 1.234 1.695 3.112.326 5.01-1.327 1.839-3.078 2.528-4.843 1.253-1.737-1.254-1.713-3.102-.344-5 1.343-1.861 3.11-2.527 4.861-1.263zm-13.286-6.782c-2.408 2.445-2.578 5.114-.47 7.076 2.056 1.912 4.721 1.675 6.89-.659 2.095-2.254 2.13-4.963.055-6.894-1.377-1.281-3.186-1.649-4.91-.93l.578 1.189c1.268-.479 2.493-.237 3.508.707 1.416 1.318 1.39 3.027-.045 4.729l-5.607-5.218zm.331 6.161c-1.324-1.232-1.347-2.728-.07-4.406l4.572 4.255c-1.542 1.356-3.131 1.426-4.502.151zm1.026-11.441l-3.54 3.062.422-6.671-1.26-1.458-.31 7.075-6.653-.267 1.153 1.335 6.375.221-3.54 3.062.871 1.008 7.358-6.352-.876-1.015zm-6.525-8.32l-6.977 4.848-1.965-2.832-1.005.699 4.685 6.751 1.005-.699-1.965-2.832 6.977-4.848-.755-1.087zm-11.448.186l.668 1.234 6.647-8.099 4.576-.66-.63-1.163-14.828 2.104.643 1.187 8.431-1.215-5.507 6.612zm-2.521-48.178l-11.652-.946.588-7.258 11.653.947.107-1.319L7.92 87.497l-.802 9.894 12.917 1.05.107-1.319zm-7.892-16.364c-.302 1.408.06 2.6.896 3.506l-1.311-.281-.25 1.161 13.728 2.948.28-1.303-5.36-1.15c1.019-.5 1.762-1.39 2.037-2.674.572-2.667-1.27-4.682-4.12-5.294-2.834-.609-5.341.482-5.9 3.087zm8.786 2.08c-.434 2.024-2.258 2.635-4.458 2.163-2.235-.48-3.592-1.793-3.168-3.773.438-2.042 2.298-2.645 4.445-2.184 2.165.464 3.606 1.814 3.181 3.794zm-4.751-14.805l5.323 7.517-7.084-2.48-.425 1.216 9.175 3.21.368-1.053-5.387-7.53 7.145 2.5.424-1.215-9.174-3.21-.365 1.045zm12.264-3.086c.84-1.732.628-3.417-.608-4.828l-.938 1.025c.84.949.978 2.067.404 3.249-.912 1.878-2.748 2.156-4.856 1.161-2.028-1.016-3.029-2.603-2.089-4.538.554-1.141 1.621-1.793 2.866-1.699l.194-1.346c-1.734-.243-3.34.717-4.197 2.482-1.27 2.615-.124 4.994 2.612 6.364 2.712 1.278 5.326.778 6.611-1.87zm4.387-7.793c1.554-2.425.737-5.003-1.838-6.656-2.53-1.623-5.223-1.341-6.797 1.114-1.534 2.394-.747 4.985 1.828 6.637 2.537 1.63 5.243 1.344 6.807-1.095zm-1.068-.686c-1.137 1.773-3.012 1.863-4.981.6-1.909-1.225-2.693-2.937-1.518-4.77 1.156-1.804 3.002-1.882 4.971-.618 1.931 1.24 2.694 2.97 1.528 4.788zm5.857-13.513c-2.58-2.262-5.252-2.277-7.086-.057-1.789 2.165-1.397 4.813 1.058 6.844 2.371 1.962 5.075 1.84 6.881-.345 1.199-1.45 1.46-3.278.642-4.96l-1.153.647c.552 1.24.382 2.477-.5 3.545-1.233 1.492-2.94 1.564-4.72.23l4.878-5.904zm-6.127.69c1.152-1.395 2.643-1.504 4.391-.327l-3.979 4.815c-1.442-1.462-1.605-3.045-.412-4.488zm12.512 2.268L42.63 44.34l5.196-4.906 1.482 1.572.929-.877-2.26-2.397-.68.642-5.89-6.246-4.673 4.41c2.007 2.326 3.113 3.67 3.94 4.994.865 1.35 1.053 2.1.255 2.854l2.26 2.397.922-.871zm-1.552-3.064c.029-.573-.26-1.129-.722-1.881-.685-1.185-2.247-3.052-3.435-4.443l2.827-2.67 5.112 5.423-3.782 3.57zm6.207-16.385l.166 9.211-4.458-6.039-1.035.765 5.773 7.82.897-.663-.21-9.256 4.495 6.09 1.035-.766-5.773-7.82-.89.658zm9.346 5.454l-2.083-3.682 4.769-2.701 2.083 3.681 1.15-.652-4.786-8.46-1.15.652 2.078 3.674-4.77 2.702-2.078-3.674-1.15.652 4.786 8.46 1.15-.652zm10.316-15.831l-2.093 8.971-2.845-6.946-1.19.489 3.684 8.995 1.032-.424 2.061-9.026 2.869 7.005 1.19-.489-3.683-8.994-1.025.42zm10.357 6.88l-2.283-8.184 3.32-.927-.33-1.18-7.913 2.211.329 1.18 3.32-.928 2.282 8.184 1.275-.356zm8.22-1.792c.55-.09 1.143-.205 1.614-.391 1.241-.494 2.04-1.582 1.77-3.235-.292-1.794-1.459-2.46-2.923-2.495-.438-.002-.992.07-1.551.162l-2.248.367-.589-3.616-1.315.215 1.582 9.59 3.66-.597zm-3.155-4.473l2.31-.377c.39-.064.837-.119 1.223-.1.855.043 1.481.47 1.656 1.545.18 1.101-.364 1.683-.957 1.962-.373.17-.922.269-1.313.332l-2.31.378-.61-3.74zm12.431 3.772c1.924-.097 3.298-1.094 3.939-2.856l-1.35-.329c-.427 1.193-1.34 1.852-2.652 1.918-2.086.104-3.214-1.371-3.358-3.698-.087-2.266.822-3.907 2.97-4.015 1.268-.063 2.353.558 2.87 1.695l1.274-.479c-.623-1.636-2.239-2.582-4.198-2.484-2.904.146-4.436 2.296-4.318 5.354.186 2.991 1.884 5.042 4.823 4.894zm12.928-9.678l-3.71-.23c-.431-.026-1.069-.066-1.652.034-1.277.227-2.353 1.162-2.454 2.787-.098 1.581.816 2.549 2.054 2.95l-2.779 3.67 1.447.089 2.678-3.514c.153.019.305.028.458.038l2.264.14-.226 3.655 1.329.083.591-9.702zm-3.96 4.687c-.314-.02-.772-.047-1.197-.182-.796-.257-1.352-.877-1.292-1.847.063-1.033.781-1.557 1.385-1.7.457-.098 1.041-.07 1.338-.053l2.335.145-.233 3.782-2.336-.145zm10.53 6.172l1.033-4.565 3.619 5.62 1.878.426-3.947-5.879 5.514-3.733-1.72-.39-5.264 3.605 1.034-4.564-1.3-.295-2.155 9.478 1.308.297zm12.153 3.442l3.232-7.809 4.698 1.947-3.232 7.809 1.222.506 3.717-8.98-7.142-2.96-3.717 8.98 1.222.507zm16.502-3.211c-1.253-.71-2.498-.722-3.613-.195l.661-1.168-1.034-.585-6.914 12.22 1.159.656 2.699-4.77c.172 1.121.799 2.097 1.942 2.745 2.373 1.344 4.846.19 6.282-2.348 1.427-2.522 1.136-5.242-1.182-6.555zm-4.61 7.763c-1.801-1.02-1.839-2.945-.731-4.904 1.126-1.99 2.784-2.891 4.546-1.893 1.816 1.03 1.837 2.985.755 4.897-1.09 1.927-2.808 2.898-4.57 1.9zm7.275 6.191c2.316 1.713 4.94 1.067 6.757-1.395 1.786-2.418 1.681-5.125-.664-6.859-2.287-1.69-4.923-1.075-6.74 1.387-1.79 2.425-1.684 5.145.647 6.868zm.753-1.02c-1.693-1.252-1.66-3.13-.271-5.013 1.347-1.824 3.106-2.494 4.857-1.2 1.723 1.274 1.679 3.121.289 5.004-1.363 1.846-3.138 2.493-4.875 1.209zm13.086 6.727c2.424-2.427 2.614-5.094.52-7.071-2.042-1.928-4.709-1.71-6.895.608-2.111 2.24-2.166 4.947-.105 6.894 1.368 1.291 3.174 1.672 4.904.965l-.57-1.193c-1.272.47-2.495.219-3.502-.733-1.408-1.328-1.368-3.036.078-4.728l5.57 5.258zm-.288-6.162c1.316 1.241 1.327 2.738.039 4.405l-4.541-4.287c1.552-1.345 3.141-1.404 4.502-.118zm-.849 11.685l3.574-3.022-.495 6.666 1.243 1.471.388-7.07 6.649.34-1.138-1.348-6.373-.292 3.574-3.022-.86-1.018-7.427 6.271.865 1.024zm6.505 8.455l7.03-4.771 1.934 2.853 1.013-.687-4.611-6.802-1.013.687 1.935 2.854-7.03 4.77.742 1.096zm11.436-.102l-.655-1.242-6.735 8.026-4.584.609.617 1.17 14.851-1.94-.63-1.194-8.444 1.122 5.58-6.55z" fill="#ECEBEC"/><ellipse cx="18.157" cy="117.777" rx="3.375" ry="3.378" fill="#FFD600"/><ellipse cx="183.204" cy="80.673" rx="3.375" ry="3.378" fill="#FFD600"/></svg>