<?xml version="1.0" encoding="utf-8"?><svg viewBox="0 0 45 45" xmlns="http://www.w3.org/2000/svg" xmlns:xlink="http://www.w3.org/1999/xlink"><style>:root>svg{display:none}:root>svg:target{display:block}</style><svg fill="none" viewBox="0 0 20 20" id="icon-auth" xmlns="http://www.w3.org/2000/svg"><path d="M10 11.265c-6.449 0-10 2.843-10 8.005 0 .403.35.73.783.73h18.434c.432 0 .783-.327.783-.73 0-5.162-3.551-8.005-10-8.005zM1.595 18.54c.308-3.86 3.132-5.815 8.405-5.815s8.097 1.956 8.405 5.815H1.595zM10 0C7.038 0 4.804 2.123 4.804 4.939c0 2.898 2.331 5.255 5.196 5.255 2.865 0 5.196-2.357 5.196-5.255C15.196 2.123 12.962 0 10 0zm0 8.735c-2.001 0-3.63-1.703-3.63-3.796 0-2.016 1.527-3.48 3.63-3.48 2.07 0 3.63 1.496 3.63 3.48C13.63 7.032 12 8.735 10 8.735z" fill="#ECEBEC"/></svg><svg fill="none" viewBox="0 0 45 45" id="icon-btn-arrow" xmlns="http://www.w3.org/2000/svg"><path d="M44.809 1.132a.5.5 0 00-.5-.5h-4.493a.5.5 0 000 1h3.994v4.006a.5.5 0 10.999 0V1.132zM1.319 44.949L44.662 1.486l-.706-.708L.613 44.24l.706.708z" fill="#000"/></svg></svg>