<svg id="Слой_1" data-name="Слой 1" xmlns="http://www.w3.org/2000/svg" viewBox="0 0 211.58 206.75"><defs><style>.cls-1{fill:#ffd600}</style></defs><path d="M139.65 87.82a.51.51 0 00-.5-.5h-4.5a.5.5 0 00-.5.5.5.5 0 00.5.5h4v4a.5.5 0 00.5.5.5.5 0 00.5-.5zm-51.3 51.53l51.15-51.17-.71-.71-51.14 51.18zM206.24 124c-.45 3.86 2 6.26 6 6.72s6.94-1.31 7.39-5.16-2.06-6.25-6-6.71-6.94 1.29-7.39 5.15zm1.26.15c.37-3 2.76-4.3 6-3.9s5.28 2.14 4.92 5.16-2.76 4.29-6 3.91-5.28-2.17-4.92-5.19zm-3.11 11.78l8.26 2-.81 3.35 1.19.29 1.93-8-1.19-.29-.81 3.35-8.25-2zm-1.81 6.44l4.42 1.53-6 3-.62 1.82 6.27-3.28 3.11 5.89.57-1.67-3-5.63 4.42 1.53.43-1.26-9.18-3.2zm4.85 14.86a3.76 3.76 0 00-.1-3.62l1.22.57.5-1.08-12.74-5.9-.56 1.21 5 2.3a3.72 3.72 0 00-2.57 2.16c-1.15 2.47.2 4.85 2.85 6.07s5.28.71 6.4-1.71zm-8.11-4c.87-1.87 2.79-2.07 4.83-1.12s3.11 2.54 2.26 4.38-2.83 2.07-4.82 1.15-3.12-2.54-2.27-4.38zm-5.13 7.77a8.65 8.65 0 00-.77 1.47 3 3 0 005.08 2.9 10 10 0 00.89-1.27l.9-1.44 3.11 1.93.7-1.13-8.27-5.11zm4.87 10.57l.7-1.12-8.26-5.13-.69 1.12zm.26-9.51l-.92 1.49a7 7 0 01-.73 1 1.63 1.63 0 01-2.26.23 1.69 1.69 0 01-.84-2 5.65 5.65 0 01.61-1.2l.92-1.49zm-12.54 9.68l6.66 5.27-2.14 2.71 1 .76 5.1-6.45-1-.76-2.14 2.7-6.66-5.26zm-6 6.83a8.27 8.27 0 00-1.06 1.28 3 3 0 004.35 3.9 9 9 0 001.15-1.06l1.58-1.64 2.64 2.54.92-1-7-6.74zm5.2 1.7l-1.62 1.73a5.87 5.87 0 01-.92.81 1.63 1.63 0 01-2.25-.24 1.68 1.68 0 01-.41-2.15 5.83 5.83 0 01.85-1.05l1.63-1.69zm-15.89 7.78l5.17 6.74-2.73 2.1.74 1 6.52-5-.74-1-2.73 2.1-5.18-6.74zM163.66 202c1.1.81 2.56.72 4.07-.21 1.83-1.11 2.47-2.68 2-4.4l-1.29.35a2.49 2.49 0 01-1.29 3c-1.58 1-2.64.62-3.57-.87 1-.83 2.46-1.95 3.41-2.91a2.84 2.84 0 00.64-3.7c-.81-1.32-2.45-1.88-4.33-.73a4.08 4.08 0 00-2.18 3.54l-.84-1.38-1 .62 3.15 5.15a5.63 5.63 0 001.23 1.54zm.05-8.43c1.34-.82 2.3-.36 2.74.36a1.92 1.92 0 01-.51 2.38 30.44 30.44 0 01-3 2.54 7.85 7.85 0 01-.7-1.39 3.09 3.09 0 011.47-3.92zm-10.44 4.36c-2.57 1.2-3.39 3.67-2.16 6.3s3.48 3.6 5.85 2.49a4 4 0 002.41-3.06 4.14 4.14 0 010 3.73c-.81 1.29-3.09 2.44-4.17 3.24l.64 1c1.43-1.05 3.65-2.09 4.57-3.62a4.39 4.39 0 00.6-2.71 15.77 15.77 0 00-1.5-4.51c-1.58-3.09-3.77-3.99-6.24-2.86zm.44 1.2c1.84-.86 3.39-.12 4.3 1.84s.49 3.63-1.32 4.47-3.41.13-4.32-1.83-.51-3.61 1.34-4.48zm-5.31 1.37c-1.86.25-2.13 1-1.91 2.64a65.44 65.44 0 001.46 6.44l-3.85 1.31-2.73-8-1.24.42 3.13 9.2 6.26-2.13a70.39 70.39 0 01-1.67-7c-.17-1.06-.17-1.67.92-1.83zm-15.01 14.4l3.61-8.47 1.6 7.33 1.26-.27-2.08-9.5-1.09.24-3.59 8.53-1.61-7.39-1.26.28 2.08 9.49zm-15.45-9.5l.29 2.9 2-.2.85 8.45 1.31-.13-.89-8.42 5.06-.51.84 8.41 1.32-.13-1-9.67-8.31.84-.17-1.68zm-2.39 11.4h1.41l-3.84-9.75 1.65-4.32h-1.32l-5.38 14h1.35l3-7.95zm-60.37-30.57c-3-2.44-6.38-1.61-8.89 1.49s-2.61 6.57.41 9 6.37 1.6 8.88-1.5 2.61-6.56-.4-8.99zm-.79 1c2.35 1.92 2.16 4.63.1 7.13s-4.64 3.31-7 1.39-2.14-4.62-.1-7.13 4.61-3.32 7-1.4zm-8.17-8.83l-6.09 5.92-2.41-2.48-.87.86 5.72 5.89.88-.85-2.4-2.47 6.09-5.92zm-4.51-5.01l-3.65 2.93.67-6.65-1.21-1.5-.52 7.05-6.64-.51 1.11 1.38 6.36.45-3.65 2.93.83 1 7.59-6.08zm-15.19-3.87a3.78 3.78 0 003.11 1.85l-1.12.73.64 1 11.79-7.63-.72-1.12-4.6 3a3.73 3.73 0 00-.46-3.33c-1.48-2.29-4.2-2.42-6.65-.83s-3.44 4.1-1.99 6.33zm7.68-4.74c1.13 1.74.27 3.46-1.62 4.68s-3.81 1.28-4.91-.42-.24-3.5 1.6-4.69 3.83-1.27 4.93.43zm-3.73-8.31a8.18 8.18 0 00-.84-1.42 2.75 2.75 0 00-3.61-.76 2.75 2.75 0 00-1.54 3.52 10.12 10.12 0 00.6 1.44l.75 1.52-3.29 1.61.59 1.19 8.71-4.29zM18.92 155l.58 1.19 8.73-4.28-.58-1.19zm7.93 5.27l-.78-1.58a6.59 6.59 0 01-.45-1.14 1.63 1.63 0 011-2 1.68 1.68 0 012.16.35 5.89 5.89 0 01.7 1.15l.77 1.58zm-1.53-15.78l-8 2.83-1.15-3.25-1.15.41 2.74 7.75 1.15-.41-1.15-3.25 8-2.84zm-2.6-8.8a8.35 8.35 0 00-.51-1.58 2.77 2.77 0 00-3.36-1.52 2.74 2.74 0 00-2.27 3.11 10.24 10.24 0 00.28 1.53l.54 2.22-3.56.86.31 1.29 9.44-2.31zm-4.22 3.49l-.5-2.28a5.54 5.54 0 01-.19-1.21 1.62 1.62 0 011.41-1.77 1.69 1.69 0 012 .81 5.51 5.51 0 01.43 1.28l.55 2.27zm1.93-17.46l-8.46.75-.3-3.43-1.22.11.73 8.18 1.22-.11-.31-3.43 8.46-.75zm-8.31-13.29c-1.27.49-2 1.77-2 3.54 0 2.14.94 3.53 2.66 4l.41-1.28a2.49 2.49 0 01-1.82-2.7c0-1.84.89-2.55 2.65-2.54.15 1.3.32 3.12.61 4.44a2.85 2.85 0 002.78 2.53c1.55 0 2.9-1.06 2.94-3.26a4.07 4.07 0 00-1.81-3.74h1.62v-1.18l-6-.12a5.58 5.58 0 00-2.04.31zM19.2 113c0 1.57-.93 2.14-1.77 2.12-1.06 0-1.51-.88-1.74-1.72a30.81 30.81 0 01-.52-3.89 7.53 7.53 0 011.54.16A3.08 3.08 0 0119.2 113zm1.87-11c.37-2.81-1.29-4.82-4.16-5.19s-4.9 1-5.23 3.61a4 4 0 001.3 3.67 4.2 4.2 0 01-3.15-2c-.66-1.38-.41-3.92-.51-5.26h-1.2c.12 1.78-.19 4.21.62 5.81a4.28 4.28 0 002 1.94 15.51 15.51 0 004.62 1.16c3.42.31 5.35-1.06 5.71-3.74zm-1.24-.26c-.26 2-1.71 2.92-3.86 2.64s-3.33-1.53-3.07-3.51 1.72-2.95 3.86-2.67 3.33 1.49 3.07 3.52zm1.66-5.28c.79-1.7.29-2.34-1.2-3a64.73 64.73 0 00-6.22-2.23l1-4 8.22 2 .27-1.23-9.45-2.29-1.56 6.39c3 .91 5.13 1.62 6.76 2.32 1 .43 1.51.76 1.06 1.77zm-4.2-20.21l5.23 7.57-7-2.55-.52 1.21 9.14 3.31.38-1.05-5.3-7.59 7.11 2.58.44-1.21-9.14-3.31zm16.25-7.97L30.94 67l-.87 1.75-7.6-3.8-.6 1.19 7.56 3.77-2.27 4.55-7.56-3.79-.6 1.18 8.69 4.34 3.74-7.48 1.51.76zM25 60.47l-.77 1.18 10.3 2 2.77 3.7.7-1.16-9-12-.73 1.14 5.11 6.82zm58.31-35.12c3.67-1.24 4.78-4.53 3.5-8.31s-4.14-5.72-7.81-4.48-4.77 4.52-3.49 8.3 4.13 5.72 7.8 4.49zm-.41-1.2c-2.89 1-5.06-.66-6.07-3.74s-.32-5.69 2.57-6.65 5 .66 6.08 3.73.31 5.69-2.58 6.66zm11.2-2.06l-1.75-8.32 3.37-.71-.25-1.2-8 1.7.25 1.19 3.33-.75 1.76 8.32zm6.75-1.2l-.52-4.65 5.26 4.11 1.91-.21-5.65-4.26 4-5.33-1.75.19-3.79 5.14-.52-4.65-1.33.15L99.52 21zm11.53-10.82a3.8 3.8 0 00-3.23 1.65v-1.34H108l.16 14h1.34l-.07-5.48a3.72 3.72 0 003.06 1.39c2.73 0 4.28-2.27 4.25-5.19s-1.74-5.1-4.36-5.03zm-.09 9c-2.07 0-3.07-1.62-3.1-3.87s1-3.9 3-3.92 3.09 1.65 3.12 3.85-.99 3.95-3.02 3.97zM122 20.4a8.39 8.39 0 001.65.06 2.76 2.76 0 002.59-2.64 2.76 2.76 0 00-2.14-3.19 10.26 10.26 0 00-1.54-.26l-1.68-.19.41-3.64-1.33-.15-1.06 9.66zm7.45-8.95l-1.31-.14L127 21l1.32.14zm-8.7 3.86l1.74.19a5.64 5.64 0 011.21.24 1.63 1.63 0 011.18 1.93 1.69 1.69 0 01-1.46 1.63 6.1 6.1 0 01-1.35 0l-1.74-.2zm14.03 7.16l1.91-8.28 3.36.77.27-1.19-8-1.85-.32 1.19 3.36.78-1.91 8.28zm8.35 2.35a8.46 8.46 0 001.61.41 2.76 2.76 0 003.08-2 2.74 2.74 0 00-1.42-3.58A10.22 10.22 0 00145 19l-2.16-.73 1.16-3.43-1.26-.42-3.09 9.21zm-.69-5.43l2.22.74a6.23 6.23 0 011.12.49 1.63 1.63 0 01.75 2.14 1.69 1.69 0 01-1.77 1.29 6.27 6.27 0 01-1.31-.32l-2.22-.73zm14.2 11.14l3.91-7.53 3.06 1.59.57-1.09-7.3-3.78-.56 1.09 3.06 1.58-3.91 7.55zm15.02-.33c.27-1.34-.44-2.62-1.92-3.59-1.79-1.18-3.49-1.09-4.82.11l.87 1a2.49 2.49 0 013.25-.11c1.54 1 1.68 2.12.73 3.6-1.18-.56-2.81-1.39-4.08-1.85-1.43-.47-2.75-.33-3.62 1s-.65 3 1.19 4.23a4.09 4.09 0 004.12.46l-.88 1.34 1 .65 3.31-5a5.23 5.23 0 00.85-1.84zM164 33.76c-1.31-.86-1.31-1.93-.85-2.64a1.94 1.94 0 012.38-.55 28.37 28.37 0 013.57 1.63 7.14 7.14 0 01-1 1.22 3.08 3.08 0 01-4.1.34zm8.48 7.53c2.18 1.81 4.76 1.48 6.61-.75s1.77-4.68-.25-6.35a4 4 0 00-3.8-.87 4.17 4.17 0 013.38-1.58c1.51.18 3.53 1.75 4.72 2.38l.65-1c-1.57-.84-3.46-2.4-5.24-2.58a4.34 4.34 0 00-2.7.62 15.83 15.83 0 00-3.44 3.29c-2.14 2.72-2.02 5.09.07 6.84zm.89-.92c-1.57-1.29-1.56-3-.18-4.67s3.07-2 4.61-.72 1.57 3 .2 4.69-3.06 2.01-4.63.7zm3.53 4.17c1 1.57 1.83 1.49 3.2.6a65.77 65.77 0 005.2-4.08l2.84 2.94-6.07 5.89.92.94L190 44l-4.6-4.74c-2.35 2-4.11 3.47-5.57 4.48-.89.62-1.44.87-2.06 0zm19.84 7.81l-9.2.36 5.94-4.59-.79-1-7.69 5.93.68.88 9.25-.41-6 4.63.79 1 7.69-6zm-2.04 17.86l2.48-1.5-1-1.68 7.27-4.4-.69-1.13-7.23 4.38-2.63-4.35 7.23-4.38-.7-1.15-8.31 5 4.33 7.15-1.44.87zm11.2-3.01l-.6-1.27-7.14 7.66-4.61.37.56 1.2L209 74l-.56-1.22-8.5.68z" transform="translate(-8.12 -10.07)"/><circle class="cls-1" cx="41.96" cy="26.98" r="3.5"/><circle class="cls-1" cx="71.96" cy="196.98" r="3.5"/><circle class="cls-1" cx="201.96" cy="86.98" r="3.5"/></svg>