<svg xmlns="http://www.w3.org/2000/svg" height="304" width="304"><defs><clipPath id="a" clipPathUnits="userSpaceOnUse"><path d="M0 228h228V0H0z"/></clipPath></defs><g clip-path="url(#a)" transform="matrix(1.33333 0 0 -1.33333 0 304)"><path d="M88.353 88.647l51.147 51.177-.708.707-51.145-51.178zm51.291 51.53a.5.5 0 01-.5.502h-4.497a.5.5 0 010-1.001h4v-4.001a.5.5 0 11.997 0zm67.856-36.305c.369 3.02 2.756 4.301 5.971 3.9 3.215-.4 5.278-2.144 4.918-5.165-.369-3.019-2.754-4.283-5.972-3.909-3.218.374-5.277 2.153-4.917 5.174m-1.26.146c-.448-3.853 2.055-6.254 6.015-6.714 3.96-.46 6.947 1.304 7.394 5.157.447 3.844-2.056 6.246-6.016 6.706-3.96.46-6.947-1.304-7.393-5.149m-1.847-11.944l8.258-2.003-.814-3.35 1.19-.289 1.937 7.986-1.19.29-.812-3.35-8.257 2.002zm-1.811-6.441l4.423-1.527-5.981-2.982-.63-1.82 6.276 3.279 3.106-5.891.576 1.668-3.007 5.627 4.424-1.528.435 1.259-9.185 3.183zm-3.26-10.897c.87 1.878 2.785 2.071 4.826 1.127 2.074-.96 3.108-2.54 2.258-4.378-.878-1.895-2.826-2.074-4.818-1.15-2.009.928-3.118 2.563-2.266 4.401m8.111-3.965c.606 1.306.516 2.548-.1 3.616l1.217-.563.5 1.078-12.742 5.9-.559-1.21 4.973-2.302c-1.103-.262-2.024-.966-2.576-2.159-1.146-2.474.205-4.846 2.852-6.072 2.63-1.218 5.316-.707 6.435 1.712m-8.11-4.851l-.926-1.491c-.204-.33-.457-.701-.73-.987-.594-.617-1.327-.808-2.252-.233-.948.589-1.029 1.38-.845 2.018.112.386.4.864.607 1.2l.926 1.492zm-.259-9.511l.697 1.124-8.257 5.127-.699-1.124zm-4.879 10.572c-.288-.467-.596-.997-.76-1.466-.45-1.27-.154-2.585 1.268-3.468 1.545-.96 2.803-.502 3.803.562.29.33.602.802.897 1.276l.893 1.437 3.112-1.932.702 1.132-8.266 5.11zm-7.408-10.723l6.665-5.27-2.139-2.704.96-.758 5.098 6.445-.96.76-2.139-2.704-6.665 5.268zm-.793-8.523l-1.624-1.685c-.275-.285-.6-.595-.92-.81-.712-.48-1.469-.513-2.252.244-.804.774-.717 1.565-.408 2.144.196.36.578.768.852 1.052l1.624 1.686zm-5.205 1.693c-.388-.4-.793-.847-1.06-1.278-.697-1.14-.686-2.489.52-3.65 1.308-1.262 2.641-1.098 3.836-.249.35.26.752.65 1.144 1.057l1.581 1.64 2.636-2.542.926.958-7.01 6.734zm-10.686-9.482l5.172-6.74-2.734-2.098.745-.973 6.519 5.002-.745.972-2.734-2.099-5.173 6.742zm-6.381-5.484c1.336.816 2.3.36 2.74-.361.55-.9.064-1.743-.516-2.383-.76-.812-1.985-1.74-2.995-2.536-.231.376-.543.924-.7 1.386-.55 1.384-.111 2.928 1.47 3.894m-.047-8.434c1.095-.808 2.557-.716 4.07.208 1.828 1.116 2.47 2.689 1.949 4.406l-1.295-.348c.36-1.298-.154-2.287-1.29-2.98-1.574-.963-2.638-.621-3.568.867 1.012.829 2.456 1.954 3.413 2.907 1.035 1.086 1.469 2.343.639 3.702-.807 1.32-2.454 1.876-4.335.727-1.414-.863-2.174-2.087-2.177-3.533l-.838 1.375-1.008-.615 3.148-5.154c.375-.614.797-1.2 1.292-1.562m-9.949 2.846c1.834.858 3.38.121 4.3-1.844.915-1.956.484-3.628-1.325-4.474-1.802-.843-3.41-.124-4.325 1.832-.896 1.916-.501 3.621 1.35 4.486m-.448 1.192c-2.572-1.193-3.382-3.668-2.154-6.293 1.178-2.519 3.472-3.602 5.845-2.493 1.304.61 2.236 1.701 2.412 3.065.537-1.447.607-2.786-.022-3.735-.807-1.292-3.092-2.44-4.168-3.241l.639-1.023c1.432 1.057 3.649 2.094 4.57 3.628.485.773.696 1.766.597 2.702-.098 1.078-.8 3.154-1.497 4.517-1.554 3.109-3.744 4.012-6.222 2.873m-4.87-2.563c-1.854-.252-2.124-1.02-1.905-2.638.19-1.426.807-3.984 1.458-6.444l-3.851-1.314-2.73 7.999-1.244-.426 3.14-9.198 6.252 2.133c-.817 2.983-1.383 5.196-1.67 6.952-.173 1.064-.17 1.673.924 1.837zm-15.008-14.407l3.61 8.473 1.604-7.332 1.258.273-2.076 9.496-1.09-.238-3.59-8.531-1.615 7.393-1.257-.274 2.074-9.496zm-15.448 9.5l.291-2.892 1.942.196.851-8.453 1.315.13-.844 8.41 5.058.509.847-8.41 1.315.133-.972 9.672-8.32-.837-.168 1.674zm-2.388-11.4l1.404-.017-3.838 9.747 1.652 4.32-1.322.014-5.383-13.977 1.35-.017 3.044 7.957zM54.387 40.782c2.354-1.926 2.16-4.628.102-7.13-2.06-2.503-4.635-3.313-6.995-1.394-2.354 1.926-2.146 4.618-.108 7.136 2.037 2.52 4.64 3.308 7 1.388m.799.986c-3.017 2.44-6.384 1.61-8.891-1.49-2.507-3.1-2.614-6.568.403-9.007 3.009-2.433 6.377-1.603 8.884 1.497 2.507 3.101 2.613 6.568-.396 9m-8.965 7.834l-6.093-5.92-2.402 2.474-.878-.854 5.726-5.893.877.852-2.401 2.473 6.094 5.92zm-4.509 5.011l-3.65-2.93.664 6.65-1.205 1.502-.568-7.057-6.64.51 1.103-1.376 6.365-.454-3.65-2.929.834-1.039 7.586 6.077zm-7.508 8.607c1.124-1.737.266-3.461-1.623-4.683-1.92-1.241-3.808-1.272-4.907.428-1.134 1.754-.246 3.496 1.598 4.69 1.86 1.202 3.832 1.266 4.932-.435m-7.683-4.743c.782-1.21 1.88-1.796 3.112-1.846l-1.126-.727.645-.998 11.79 7.624-.723 1.119-4.602-2.978c.366 1.074.263 2.23-.451 3.332-1.481 2.29-4.207 2.413-6.656.83-2.433-1.574-3.435-4.12-1.99-6.356m.327 9.257l-.772 1.575c-.17.348-.353.76-.45 1.143-.208.831.02 1.553.997 2.033 1.002.491 1.716.14 2.16-.355.266-.299.52-.796.694-1.153l.773-1.574zM18.921 73l.583-1.189 8.726 4.28-.582 1.19zm11.55-1.473c-.243.492-.529 1.033-.84 1.423-.837 1.053-2.109 1.502-3.612.764-1.632-.8-1.912-2.11-1.54-3.522.125-.419.358-.936.604-1.437l.745-1.519-3.289-1.613.587-1.197 8.72 4.296zM25.32 83.515l-8.01-2.835-1.15 3.249-1.153-.407 2.742-7.746 1.154.407-1.151 3.25 8.009 2.835zm-6.82 5.307l-.552 2.273c-.094.386-.182.828-.193 1.213-.022.857.356 1.514 1.414 1.77 1.085.263 1.706-.235 2.029-.804.198-.359.339-.899.432-1.284l.552-2.274zm4.219 3.487c-.131.542-.291 1.124-.512 1.58-.588 1.2-1.733 1.912-3.36 1.52-1.767-.43-2.343-1.645-2.266-3.108.032-.436.146-.982.28-1.534l.537-2.213-3.56-.863.314-1.294 9.442 2.31zm-2.284 13.973l-8.463-.752-.305 3.433-1.219-.108.728-8.185 1.22.11-.306 3.432 8.462.753zm-1.23 8.715c-.03-1.566-.933-2.133-1.778-2.117-1.053.02-1.505.884-1.732 1.717-.276 1.076-.4 2.61-.528 3.89.44-.009 1.07-.039 1.546-.156 1.462-.28 2.528-1.48 2.492-3.334m-7.086 4.575c-1.27-.489-1.98-1.772-2.013-3.544-.042-2.142.94-3.529 2.668-4.013l.403 1.28c-1.29.394-1.847 1.36-1.821 2.691.036 1.844.896 2.557 2.65 2.541.156-1.299.328-3.12.617-4.44.359-1.457 1.186-2.499 2.778-2.53 1.548-.03 2.9 1.06 2.944 3.265.03 1.656-.592 2.955-1.81 3.735l1.61-.032.024 1.18-6.038.116c-.72.014-1.441-.026-2.012-.249m7.709 6.71c-.257-2.009-1.707-2.92-3.858-2.646-2.143.274-3.325 1.532-3.072 3.514.252 1.973 1.72 2.946 3.862 2.673 2.098-.269 3.327-1.515 3.068-3.54m1.246-.26c.369 2.811-1.29 4.82-4.163 5.187-2.76.352-4.902-1.007-5.234-3.605-.182-1.428.24-2.798 1.299-3.677-1.51.32-2.678.978-3.144 2.017-.66 1.373-.407 3.917-.508 5.254l-1.205.01c.126-1.777-.185-4.205.618-5.805.394-.82 1.12-1.53 1.965-1.947.962-.495 3.092-1.013 4.616-1.153 3.458-.35 5.393 1.016 5.756 3.72m.421 5.513c.783 1.7.28 2.34-1.202 3.024-1.307.604-3.795 1.458-6.22 2.23l.96 3.954 8.213-1.992.31 1.277-9.446 2.292-1.558-6.42c2.955-.911 5.126-1.623 6.76-2.326.99-.425 1.504-.753 1.055-1.765zm-4.209 20.214l5.238-7.575-7.056 2.557-.44-1.21 9.139-3.312.38 1.05-5.3 7.588 7.116-2.579.439 1.21-9.14 3.312zm16.254 7.965l-2.602 1.3-.873-1.748-7.599 3.798-.592-1.183 7.56-3.778-2.273-4.549-7.56 3.778-.59-1.183 8.694-4.346 3.737 7.48 1.506-.753zm-8.565 7.812l-.762-1.179 10.292-1.95 2.773-3.7.718 1.11-8.955 12.007-.733-1.134 5.108-6.819zM82.9 203.855c-2.887-.955-5.064.658-6.074 3.736-1.01 3.078-.312 5.688 2.574 6.651 2.888.955 5.048-.663 6.083-3.734 1.035-3.07.304-5.69-2.582-6.654m.406-1.202c3.676 1.24 4.78 4.527 3.506 8.305-1.273 3.778-4.143 5.727-7.82 4.487-3.666-1.236-4.771-4.524-3.497-8.302 1.274-3.778 4.143-5.726 7.81-4.49m10.794 3.263l-1.751 8.313 3.373.71-.252 1.199-8.04-1.694.252-1.197 3.373.71 1.75-8.314zm6.751 1.198l-.522 4.65 5.262-4.118 1.914.215-5.658 4.255 3.983 5.338-1.753-.196-3.788-5.135-.522 4.65-1.324-.148 1.075-9.66zm11.44 1.787c-2.07-.024-3.07 1.621-3.096 3.871-.026 2.285.954 3.9 2.979 3.922 2.088.024 3.088-1.656 3.114-3.852.025-2.214-.972-3.918-2.997-3.94m.085 9.028c-1.44-.017-2.522-.633-3.222-1.649l-.015 1.341-1.188-.013.163-14.04 1.332.016-.064 5.481c.712-.883 1.744-1.412 3.058-1.396 2.727.031 4.285 2.273 4.252 5.188-.034 2.898-1.653 5.103-4.316 5.072m8.344-5.234l1.745-.196c.385-.043.83-.111 1.205-.235.813-.272 1.299-.852 1.178-1.934-.125-1.11-.805-1.522-1.46-1.63-.396-.064-.952-.01-1.346.034l-1.744.195zm8.702 3.85l-1.314.148-1.084-9.66 1.313-.147zm-7.453-8.944c.546-.061 1.156-.112 1.65-.06 1.339.14 2.403.973 2.588 2.636.203 1.807-.751 2.747-2.14 3.193-.422.12-.984.2-1.537.263l-1.683.189.409 3.64-1.324.149-1.065-9.662zm12.812-2.066l1.91 8.279 3.357-.775.276 1.193-8.007 1.846-.275-1.192 3.358-.775-1.909-8.28zm7.659 3.078l2.217-.748c.375-.126.796-.287 1.128-.484.735-.438 1.09-1.108.742-2.14-.358-1.058-1.11-1.317-1.764-1.286-.41.024-.941.194-1.316.32l-2.22.748zm.695-5.43c.53-.178 1.107-.354 1.61-.41 1.329-.143 2.543.444 3.078 2.03.58 1.724-.14 2.859-1.417 3.575-.387.206-.91.4-1.446.582l-2.16.728 1.17 3.47-1.26.426-3.088-9.216zm13.505-5.718l3.91 7.543 3.063-1.586.562 1.086-7.295 3.782-.563-1.087 3.06-1.586-3.91-7.543zm7.376-3.22c-1.308.86-1.308 1.926-.843 2.633.578.88 1.549.802 2.375.55 1.059-.34 2.42-1.052 3.573-1.626-.242-.37-.603-.885-.956-1.224-1.015-1.088-2.598-1.351-4.15-.333m7.648 3.559c.264 1.334-.444 2.617-1.925 3.59-1.79 1.177-3.488 1.086-4.817-.118l.868-1.023c1.02.88 2.133.838 3.247.106 1.542-1.013 1.686-2.12.738-3.596-1.183.56-2.816 1.386-4.087 1.844-1.423.472-2.744.329-3.62-1.003-.85-1.293-.65-3.02 1.194-4.23 1.384-.91 2.816-1.075 4.124-.46l-.885-1.346.987-.647 3.315 5.047c.396.602.746 1.233.86 1.836m1.704-10.178c-1.562 1.291-1.558 3.004-.175 4.675 1.377 1.665 3.071 1.992 4.611.72 1.533-1.269 1.572-3.029.196-4.694-1.348-1.63-3.057-2.003-4.632-.7m-.885-.916c2.18-1.814 4.763-1.485 6.61.748 1.771 2.144 1.767 4.681-.25 6.35-1.11.917-2.496 1.291-3.804.866 1.078 1.106 2.258 1.743 3.386 1.581 1.511-.176 3.528-1.75 4.713-2.379l.651 1.015c-1.569.841-3.456 2.401-5.237 2.578-.906.106-1.892-.129-2.697-.62-.93-.549-2.507-2.073-3.44-3.286-2.145-2.735-2.023-5.102.068-6.853m4.42-3.255c1.021-1.568 1.83-1.484 3.198-.594 1.208.784 3.257 2.435 5.202 4.074l2.834-2.918-6.06-5.888.915-.943 6.972 6.773-4.603 4.739c-2.347-2.016-4.105-3.473-5.57-4.483-.888-.611-1.44-.87-2.055.049zm19.839-7.801l-9.204-.368 5.938 4.59-.786 1.019-7.69-5.945.681-.883 9.248.414-5.988-4.63.786-1.017 7.691 5.945zm-2.045-17.866l2.485 1.506-1.01 1.67 7.265 4.403-.684 1.13-7.228-4.377-2.636 4.349 7.23 4.378-.687 1.132-8.313-5.036 4.332-7.152-1.44-.871zm11.199 3.011l-.59 1.275-7.142-7.662-4.61-.37.557-1.2 14.932 1.163-.567 1.225-8.492-.68z"/><path d="M50.081 194.45a3.5 3.5 0 100-7 3.5 3.5 0 000 7m30-169.999a3.5 3.5 0 100-7 3.5 3.5 0 000 7m130 109.999a3.5 3.5 0 100-7 3.5 3.5 0 000 7" fill="#ffd600"/></g></svg>