<svg id="Слой_1" data-name="Слой 1" xmlns="http://www.w3.org/2000/svg" viewBox="0 0 150 48"><defs><clipPath id="clip-path"><path fill="none" d="M0 0h150v48H0z"/></clipPath><style>.cls-3{fill:#ecebec}.cls-4{fill:#ffd600}</style></defs><g clip-path="url(#clip-path)"><path class="cls-3" d="M76.36 19.32L62.48 36.16h13.88v4.37H55.09v-3.11L69 20.58H55.09V16.2h21.27zm24.55 11.24H84.77c.34 3.41 1.71 6.08 7.43 6.08a23.24 23.24 0 007-.87v4.28a23.31 23.31 0 01-7 1c-11 0-12.42-7.83-12.42-12.65 0-7.64 3-12.65 10.57-12.65s10.56 4.52 10.56 12.16zm-16.24-4.38H96c-.1-4.23-1.71-6.08-5.67-6.08-3.75 0-5.41 2.14-5.66 6.08zm27.97-15.33v5.35h7v4.38h-7v20h-4.89v-20h-3.91v-4.37h3.91V6.47h11.84v4.38zm17.21 5.36H125v24.33h4.89z"/><path class="cls-4" d="M129.85 6.47H125v4.87h4.89z"/><path class="cls-3" d="M150 20.58h-9.39v20h-4.89V16.2H150z"/><path class="cls-4" d="M21 48a20.85 20.85 0 1120.89-20.85A20.92 20.92 0 0121 48zm0-36.2a15.36 15.36 0 1015.38 15.35A15.42 15.42 0 0021 11.8zm22.41-1.38a5.21 5.21 0 10-5.24-5.21 5.22 5.22 0 005.24 5.21z"/></g></svg>