<?xml version="1.0" encoding="utf-8"?><svg viewBox="0 0 61 61" xmlns="http://www.w3.org/2000/svg" xmlns:xlink="http://www.w3.org/1999/xlink"><style>:root>svg{display:none}:root>svg:target{display:block}</style><svg fill="none" viewBox="0 0 8 61" id="icon-arrow-bottom" xmlns="http://www.w3.org/2000/svg"><path d="M3.646 60.354a.5.5 0 00.708 0l3.182-3.182a.5.5 0 10-.708-.707L4 59.293l-2.828-2.828a.5.5 0 10-.708.707l3.182 3.182zM3.5 0v60h1V0h-1z" fill="#000"/></svg><svg fill="none" viewBox="0 0 61 8" id="icon-arrow-left" xmlns="http://www.w3.org/2000/svg"><path d="M.646 3.646a.5.5 0 000 .708l3.182 3.182a.5.5 0 10.708-.708L1.707 4l2.829-2.828a.5.5 0 00-.708-.708L.646 3.646zM61 3.5H1v1h60v-1z" fill="currentColor"/></svg><svg fill="none" viewBox="0 0 61 8" id="icon-arrow-right" xmlns="http://www.w3.org/2000/svg"><path d="M60.354 4.354a.5.5 0 000-.708L57.172.464a.5.5 0 10-.707.708L59.293 4l-2.828 2.828a.5.5 0 10.707.708l3.182-3.182zM0 4.5h60v-1H0v1z" fill="currentColor"/></svg><svg fill="none" viewBox="0 0 8 61" id="icon-arrow-top" xmlns="http://www.w3.org/2000/svg"><path d="M4.354.646a.5.5 0 00-.708 0L.464 3.828a.5.5 0 00.708.708L4 1.707l2.828 2.829a.5.5 0 10.708-.708L4.354.646zM4.5 61V1h-1v60h1z" fill="#000"/></svg><svg fill="none" viewBox="0 0 20 20" id="icon-auth" xmlns="http://www.w3.org/2000/svg"><path d="M10 11.265c-6.449 0-10 2.843-10 8.005 0 .403.35.73.783.73h18.434c.432 0 .783-.327.783-.73 0-5.162-3.551-8.005-10-8.005zM1.595 18.54c.308-3.86 3.132-5.815 8.405-5.815s8.097 1.956 8.405 5.815H1.595zM10 0C7.038 0 4.804 2.123 4.804 4.939c0 2.898 2.331 5.255 5.196 5.255 2.865 0 5.196-2.357 5.196-5.255C15.196 2.123 12.962 0 10 0zm0 8.735c-2.001 0-3.63-1.703-3.63-3.796 0-2.016 1.527-3.48 3.63-3.48 2.07 0 3.63 1.496 3.63 3.48C13.63 7.032 12 8.735 10 8.735z" fill="#ECEBEC"/></svg><svg fill="none" viewBox="0 0 23 17" id="icon-checkbox" xmlns="http://www.w3.org/2000/svg"><path d="M22.663.392a1.15 1.15 0 00-1.626 0L7.259 14.169 1.963 8.873A1.15 1.15 0 10.337 10.5l6.109 6.109a1.15 1.15 0 001.626 0L22.663 2.018a1.15 1.15 0 000-1.626z" fill="#FFD600"/></svg><svg fill="none" viewBox="0 0 45 45" id="icon-close" xmlns="http://www.w3.org/2000/svg"><path d="M23.529 22.495L44.785 1.24A.726.726 0 0043.76.212L22.503 21.47 1.245.212A.726.726 0 00.22 1.24l21.256 21.256L.22 43.752a.726.726 0 101.026 1.026l21.256-21.256L43.76 44.778a.726.726 0 001.026-1.026L23.53 22.495z" fill="currentColor"/></svg><svg fill="none" viewBox="0 0 25 15" id="icon-eye" xmlns="http://www.w3.org/2000/svg"><path d="M24.907 7.021C24.711 6.734 19.98 0 12.5 0 6.082 0 .363 6.695.123 6.98a.526.526 0 000 .676c.24.285 5.96 6.98 12.377 6.98 6.418 0 12.137-6.695 12.377-6.98a.524.524 0 00.03-.635zM12.5 13.591c-5.145 0-10.037-4.924-11.28-6.273 1.241-1.35 6.128-6.272 11.28-6.272 6.02 0 10.269 4.916 11.306 6.244-1.198 1.306-6.117 6.301-11.306 6.301z" fill="#ECEBEC"/><path d="M12.504 3.346c-2.298 0-4.167 1.875-4.167 4.182 0 2.306 1.869 4.182 4.167 4.182s4.166-1.876 4.166-4.182c0-2.307-1.868-4.182-4.166-4.182zm0 7.318a3.135 3.135 0 01-3.125-3.136 3.135 3.135 0 013.125-3.137 3.135 3.135 0 013.125 3.137 3.135 3.135 0 01-3.125 3.136z" fill="#ECEBEC"/></svg><svg fill="none" viewBox="0 0 25 25" id="icon-google" xmlns="http://www.w3.org/2000/svg"><path d="M14.103 11.25v3.125h7.564c-.77 4.375-4.36 7.5-8.847 7.5-5.256 0-9.615-4.25-9.615-9.375s4.36-9.375 9.615-9.375c2.693 0 5 1.125 6.667 2.875l2.308-2.25C19.487 1.5 16.41 0 12.82 0 5.77 0 0 5.625 0 12.5S5.77 25 12.82 25C19.872 25 25 19.375 25 12.5v-1.25H14.103z" fill="currentColor"/></svg></svg>